<svg height="2750" viewBox="0 0 2750 2750" width="2750" xmlns="http://www.w3.org/2000/svg"><g fill-rule="evenodd"><path d="m1374.816528 2341.11792c576.002808 0 1045.792359-469.784302 1045.792359-1045.796875 0-576.00293-469.789551-1045.797119-1045.792359-1045.797119-576.007385 0-1045.801513 469.794189-1045.801513 1045.797119 0 576.012573 469.794128 1045.796875 1045.801513 1045.796875z" fill="#c2edf2"/><path d="m1056.435181 1034.977783c36.897583 22.174317 76.454223 41.257935 132.324218 70.118897 116.636109 60.243408 223.403687 137.914184 316.628174 230.340576-35.984497 6.899902-92.303589-16.913086-154.69751-49.903809 94.100098 58.180664 193.165162 115.709595 241.604004 179.824829-50.405761.614502-122.504516-24.460449-210.284301-68.131958 77.513061 41.892578 153.766479 84.650757 205.260986 144.538208-56.361816 3.600464-124.250122-20.455688-192.324341-44.946411 58.128418 27.732056 116.939209 54.588623 158.578491 103.523804-208.715698 14.792969-394.336181-19.891357-540.801147-223.754517-54.432922-75.761596-86.675964-163.815063-94.983276-254.555053-3.23407-35.311646 12.579895-67.269165 42.612915-86.118775 30.030029-18.850464 65.68811-19.198852 96.081787-.935791z" fill="#547520"/><path d="m898.564392 582.733643c-34.729553 33.64038-49.414673 82.947265-38.751343 130.104003 12.913391 66.899537 25.834961 133.799439 38.751343 200.699585 7.383972 10.607789 14.762756 21.221314 22.14917 31.834229 21.364014 30.71228 34.25531 66.518311 37.366638 103.806885 26.555359 318.05542 295.431641 560.898193 614.548096 555.027588 16.478882 304.802612-1.866699 594.591674 120.426758 888.606079 35.22644-107.465576 46.366455-236.016602 47.058716-373.720215 9.960693 204.76416 43.847168 410.702392 132.871459 575.794189 28.447144-141.607666 40.691041-298.419433 0-504.859619 49.98938 99.245606 109.577881 184.872559 185.464966 247.416992-36.470825-313.554199-171.264038-646.32727-362.635376-941.192016-3.687744-44.288452-7.370971-88.5802-11.064453-132.873902-5.434326-65.12854-17.276977-129.38916-35.27124-191.872802-32.301147-112.152344-88.412231-200.218262-176.41748-276.86792-9.724854-8.46521-19.43982-16.928223-29.154908-25.393067-60.180786-52.415527-106.328369-119.017334-134.261352-193.775146-29.733887-79.582764-97.597046-138.807861-180.469605-157.501709-82.871948-18.69458-169.590027 5.657226-230.611389 64.766846z" fill="#6e9234"/><path d="m1537.437378 1603.804321c11.656494.45166 23.383789.622193 35.190918.401612 3.728516 69.047607 5.680664 137.312133 7.873291 205.035034 48.910522-18.29541 103.882324-18.777466 154.634521.883179 81.973755 31.774047 151.884522 86.289428 202.435913 155.788208-47.691284-123.141114-106.983642-244.948121-175.474121-362.108033z" fill="#547520"/><path d="m947.825928 999.372559c5.36914 16.064697 8.836609 32.780029 10.256897 49.805786 25.573913 306.290527 275.878723 542.783813 579.359558 554.625976-161.890503-63.816162-269.155029-194.108154-316.580078-367.274048-79.131226-288.918457-230.315979-380.418823-273.036377-237.157714z" fill="#b0db6b"/><path d="m1619.978394 1090.177856c-33.505005-75.001586-81.361817-138.44104-146.916748-195.541137l-29.154908-25.393067c-60.185669-52.41101-106.328369-119.017334-134.261352-193.775146-29.739136-79.582764-97.597046-138.807861-180.469605-157.501709-73.254883-16.526856-149.513183.591797-208.36914 45.610351 78.682129-6.982421 154.187622 37.334229 185.665527 111.492432l18.616577 56.660523 36.425659 13.154785c106.113282 38.312378 173.206055 143.183105 163.508789 255.583618zm156.149536 541.787476c-151.397461-5.94104-293.411743-83.724853-379.433106-213.013794-48.036865-72.193725-75.344726-156.189575-78.957886-242.830566l-4.854858-116.557984 350.521729 165.997803c10.321899 45.274658 17.46289 91.325195 21.346557 137.81665l11.064453 132.873902c28.657959 44.163086 55.453858 89.438354 80.313111 135.713989z" fill="#547520"/><path d="m859.813049 712.837646-22.147094 6.92212c-52.656556 16.453979-92.750184 59.425903-105.525818 113.08789-12.77826 53.665039 3.647827 110.092163 43.239929 148.510132 25.433594-28.963623 72.803711-59.995239 123.184326-67.820557 28.534729-4.006958 51.474182-25.501464 57.322693-53.710449 3.555298-17.138672 14.73291-31.720825 30.356262-39.609375l11.33075-5.718139c-20.197083-5.248414-36.531067-20.074219-43.708985-39.664551-14.321167-39.08728-52.483215-64.245239-94.052063-61.997071z" fill="#ffb700"/><path d="m775.380066 981.357788c25.433594-28.963623 72.803711-59.995239 123.184326-67.820557 28.534729-4.006958 51.474182-25.501464 57.322693-53.710449 3.555298-17.138672 14.73291-31.720825 30.356262-39.609375l11.33075-5.718139c-102.3219 1.809204-191.925721 69.095336-222.194031 166.85852z" fill="#f58f00"/><path d="m1089.115112 1589.18689h717.166138c26.263916 0 47.755981 21.491943 47.755981 47.756469 0 26.273926-21.492065 47.761353-47.755981 47.761353h-717.166138c-26.269165 0-47.761596-21.487427-47.761596-47.761353 0-26.264526 21.492431-47.756469 47.761596-47.756469z" fill="#f66"/><path d="m1806.28125 1589.18689c26.263916 0 47.755981 21.491943 47.755981 47.756469 0 26.273926-21.492065 47.761353-47.755981 47.761353-26.274292 0-47.766357-21.487427-47.766357-47.761353 0-26.264526 21.492065-47.756469 47.766357-47.756469z" fill="#f99"/><path d="m1396.692871 2707h101.995606v-1022.295288h-101.995606z" fill="#f66"/><path d="m707.847778 692.32666c41.182923-5.820801 105.769287-24.54834 154.31604-49.610351 53.278321-96.395996 227.420411-89.438477 286.023194 22.086181l43.711426 8.09668c129.617187 24.001221 253.002075 74.123413 362.630249 147.318237l16.192749-33.99707c41.529418-87.227417 21.893798-191.303101-48.568726-257.402466-65.560059-61.49292-103.998291-146.517822-106.848511-236.357666-4.217651-132.914062-109.015747-240.7229-241.753906-248.698975-132.74353-7.986084-249.700134 86.492432-269.815125 217.941407-18.217712 119.071777-81.098144 226.740478-175.852722 301.112304-39.717346 31.171631-48.478943 87.796875-20.034668 129.511719z" fill="#333"/><path d="m1116.075439 223.331543 45.345459-.348877v244.177734l-45.345459-5.19165zm-82.130981 182.241211-69.48468-6.210205-12.48053 43.817871-38.288879-4.384033 63.425232-214.395264 44.550232-.343018 71.085021 235.239991-46.095092-5.277588zm-11.360046-40.168701-23.84784-89.888184-23.991882 86.619873z" fill="#fff"/><path d="m1432.480957 931.358398c33.404907 27.149903 69.875488 51.617432 121.12439 88.063233 106.983642 76.083252 201.738159 168.030029 281.002319 272.665405-36.601318 1.765991-88.998901-29.749512-146.114014-71.19812 84.95459 70.851685 174.927246 141.773315 213.841919 212.075562-49.98938-6.498536-117.837646-41.486207-198.581909-97.093018 70.829102 52.397583 140.303101 105.475342 182.840576 172.026611-56.306884-4.380493-120.130615-37.760254-184.075195-71.601806 53.652344 35.647705 108.087646 70.525268 142.405762 124.837524-208.708496-14.772949-387.589844-75.267212-503.864014-297.734741-43.212646-82.679199-62.720093-174.397949-58.158813-265.406616 1.774414-35.414673 21.936523-64.824829 54.322265-79.251465 32.391236-14.427124 67.740479-9.747559 95.256714 12.617431z" fill="#6e9234"/><path d="m1574.369751 1034.503418c51.51477 38.199585 100.053833 80.142578 145.240601 125.452026 9.127929 29.942627 14.331543 61.131958 15.335205 92.795166-14.953858-9.511474-30.524414-20.300171-46.451905-31.861694 15.480591 12.911377 31.131592 25.830322 46.607422 38.741699.18042 14.278687-.48706 28.632202-2.042358 43.00647-1.741455 16.069946-4.566651 31.881958-8.390015 47.3573-6.874756-4.546509-13.839966-9.250733-20.915039-14.122925 6.884522 5.098389 13.769409 10.201294 20.608765 15.324829-16.168091 64.393189-49.934204 122.825195-97.158325 168.868042-83.464356-29.561279-158.126709-77.734009-220.814087-155.733154 96.879882-83.557495 157.366821-202.253052 167.979736-329.827759z" fill="#8ab348"/><path d="m1020.561829 744.884888c12.093322 0 21.958679-15.683838 21.958679-34.907715 0-19.226441-9.865357-34.907593-21.958679-34.907593-12.093689 0-21.956421 15.681152-21.956421 34.907593 0 19.223877 9.862732 34.907715 21.956421 34.907715z" fill="#333"/></g></svg>