<svg height="100" viewBox="0 0 100 100" width="100" xmlns="http://www.w3.org/2000/svg"><g fill="none" stroke="#fff" stroke-linecap="round" stroke-linejoin="round"><path d="m14.777787 22.25898h57.498977c2.560356 0 4.63594 2.075584 4.63594 4.63594v35.047699c0 2.560364-2.075584 4.635941-4.63594 4.635941h-57.498977c-2.56036 0-4.635938-2.075577-4.635938-4.635941v-35.047699c0-2.560356 2.075578-4.63594 4.635938-4.63594z" stroke-width="1.228227"/><path d="m14.240942 26.854607h58.572596v33.358722h-58.572596z" stroke-width="1.171481"/><path d="m3.717672 66.995697v1.669777c0 2.031502 1.648693 3.681061 3.726705 3.681061h72.127042c2.077965 0 3.765465-1.649559 3.765465-3.681061v-1.669777z" stroke-width="1.228227"/></g><path d="m3 66.750053 6.409986-4.129589h67.8884l6.701614 3.987583z" fill="#fff"/><path d="m44.519913 24.683296c0 .550575-.456562.996918-1.019772.996918-.563221 0-1.019787-.446343-1.019787-.996918 0-.55059.456566-.996933 1.019787-.996933.56321 0 1.019772.446343 1.019772.996933z" fill="#fff"/></svg>