<svg height="100" viewBox="0 0 100 100" width="100" xmlns="http://www.w3.org/2000/svg" xmlns:xlink="http://www.w3.org/1999/xlink"><linearGradient id="a" gradientUnits="userSpaceOnUse" x1="69.783196" x2="52.600782" y1="-32.266351" y2="106.215865"><stop offset=".00001" stop-color="#939393"/><stop offset="1" stop-color="#d9d9d9"/></linearGradient><path d="m38 14c-5.5228 0-10 4.477203-10 10v54c0 5.522797 4.4772 10 10 10h23c5.522797 0 10-4.477203 10-10v-54c0-5.522797-4.477203-10-10-10z" style="fill-rule:evenodd;stroke:#fff;stroke-width:3;stroke-linecap:round;stroke-linejoin:round;fill:url(#a)"/><path d="m62.359783 51.894337c-1.040802 4.718204-3.52956 8.896908-8.991737 10.545166-1.339344.404033-2.939503-.670334-4.714318-.697785-1.871345-.029037-3.438827.953755-4.828861.433701-4.907249-1.835869-6.515259-5.573105-7.660713-10.26136-.885052-3.621937-.80769-7.852421 1.725349-9.693749 4.29884-3.124527 7.730301-.529468 10.924481-.550922 4.676453-.031422 6.321163-3.756066 11.559635.882252 2.916653 2.582569 2.749851 5.880447 1.986096 9.342403z" fill="#fff"/><path d="m46.184208 36.549713s.713062 3.829674 1.854427 5.461014c.418873.11272.811302.296909 1.145592 0-1.104042-1.93998-1.386074-5.666023-1.386074-5.666023z" fill="#204c04"/><path d="m57.694866 34.584221c-4.710361.023003-10.128322 1.390236-8.852562 7.179062 8.58445 5.89402 15.126995-6.320824 15.157696-6.324845-.189457-.256317-3.081753-.870185-6.304657-.854423z" fill="#d5d5d5"/></svg>