<svg height="100" viewBox="0 0 100 100" width="100" xmlns="http://www.w3.org/2000/svg"><g fill="none" stroke="#fff" stroke-linecap="round" stroke-linejoin="round"><path d="m16.522644 22.25898h66.017342c2.939674 0 5.322746 2.383079 5.322746 5.322746v40.239952c0 2.939675-2.383072 5.322746-5.322746 5.322746h-66.017342c-2.939671 0-5.322744-2.383071-5.322744-5.322746v-40.239952c0-2.939667 2.383073-5.322746 5.322744-5.322746z" stroke-width="1.410187"/><path d="m15.906266 27.535439h67.250015v38.300758h-67.250015z" stroke-width="1.345034"/><path d="m3.823994 73.62336v1.917152c0 2.332466 1.892944 4.226402 4.278809 4.226402h82.812526c2.385811 0 4.323311-1.893936 4.323311-4.226402v-1.917152z" stroke-width="1.410187"/></g><path d="m3 73.341324 7.359613-4.741379h77.945937l7.69445 4.578331z" fill="#fff"/><path d="m50.671013 25.04245c0 .632149-.524204 1.144615-1.170853 1.144615-.64666 0-1.170864-.512466-1.170864-1.144615 0-.632156.524204-1.144623 1.170864-1.144623.646649 0 1.170853.512467 1.170853 1.144623z" fill="#fff"/></svg>