<svg height="1228" viewBox="0 0 1980 1228" width="1980" xmlns="http://www.w3.org/2000/svg"><g fill="#fff" fill-rule="evenodd"><path d="m1745.042114 599.499573c18.773316 0 36.046387 2.999817 51.819947 8.999573 15.773437 5.999694 29.369384 14.757202 40.788208 26.272827 11.418823 11.515564 20.321411 25.643737 26.708252 42.384887 6.38684 16.74115 9.580078 35.852845 9.580078 57.335694 0 5.419128-.241822 9.918823-.725708 13.499328-.483887 3.580506-1.354737 6.38678-2.612793 8.418885-1.257935 2.032226-2.951416 3.483703-5.080323 4.354614-2.129028.870972-4.838501 1.306396-8.128662 1.306396h-184.054931c2.128906 30.579224 10.354248 53.029419 24.676147 67.351319 14.3219 14.321899 33.288452 21.482788 56.900269 21.482788 11.612304 0 21.627807-1.354737 30.046753-4.064331 8.419067-2.709534 15.773437-5.709351 22.063476-8.999512 6.289917-3.290161 11.805786-6.289978 16.547486-8.999512 4.741699-2.709594 9.338134-4.064331 13.78955-4.064331 2.903076 0 5.419068.580628 7.548096 1.741822 2.128906 1.161254 3.967529 2.806335 5.515747 4.935302l20.902222 26.127625c-7.935181 9.289856-16.837769 17.079773-26.708374 23.369751-9.870484 6.290039-20.17627 11.32196-30.917725 15.096008s-21.676269 6.43512-32.804687 7.98346c-11.12854 1.548278-21.918213 2.322448-32.369385 2.322448-20.708618 0-39.965576-3.435302-57.771118-10.305908-17.805664-6.870666-33.288575-17.031311-46.449219-30.4823-13.160645-13.450989-23.514893-30.095093-31.062866-49.932861-7.548096-19.837769-11.322022-42.820252-11.322022-68.948059 0-20.321594 3.290161-39.43335 9.870484-57.335755 6.580322-17.902343 16.015258-33.482055 28.304931-46.739502 12.289795-13.257446 27.288819-23.756774 44.997681-31.498352 17.708862-7.741577 37.691528-11.612304 59.948486-11.612304zm1.451538 51.38446c-20.902221 0-37.256103 5.902832-49.062011 17.70874-11.805787 11.805909-19.35376 28.546814-22.643921 50.223206h134.702636c0-9.289917-1.257934-18.047424-3.773925-26.272827-2.515992-8.225464-6.386719-15.434693-11.612305-21.62793s-11.805786-11.080017-19.740967-14.660522c-7.935058-3.580506-17.224853-5.370667-27.869507-5.370667zm-205.537719-180.281006v431.396973h-71.705933v-431.396973zm-197.699341 431.396973c-9.289917 0-15.386353-4.354614-18.289429-13.063843l-5.806152-28.740478c-6.193238 6.967468-12.676758 13.257385-19.450562 18.869995-6.773926 5.612671-14.079956 10.45105-21.918213 14.515381-7.838379 4.064331-16.257202 7.20935-25.256836 9.435058-8.999511 2.225708-18.724731 3.338501-29.175903 3.338501-16.257202 0-31.159546-3.386902-44.707275-10.160766-13.54773-6.773865-25.208374-16.595826-34.982056-29.466187-9.773804-12.870361-17.321655-28.788757-22.644043-47.755615-5.322266-18.966797-7.983398-40.642944-7.983398-65.02887 0-22.063476 2.999755-42.578369 8.999511-61.545166 5.999756-18.966858 14.612061-35.41748 25.837403-49.352295 11.225219-13.934814 24.676025-24.821228 40.352661-32.659607 15.676758-7.838317 33.288574-11.757446 52.836059-11.757446 16.644287 0 30.869263 2.661133 42.675171 7.98346 11.805908 5.322326 22.353638 12.434814 31.643433 21.337585v-157.34668h71.706055v431.396973zm-95.511231-52.545654c14.902588 0 27.579224-3.096558 38.030274-9.289856 10.451172-6.193238 20.321533-14.999146 29.611328-26.417969v-133.541443c-8.12854-9.870483-16.98291-16.837829-26.56311-20.902161-9.580201-4.064331-19.885987-6.096435-30.917725-6.096435-10.838135 0-20.660156 2.032104-29.466187 6.096435-8.80603 4.064332-16.257202 10.209107-22.353637 18.43451-6.096558 8.225464-10.789795 18.676391-14.079956 31.35321s-4.935181 27.627503-4.935181 44.852539c0 17.418518 1.403076 32.17572 4.209351 44.271912 2.806396 12.096191 6.822265 21.966553 12.047851 29.611328 5.225464 7.644775 11.612183 13.160645 19.160278 16.547546 7.547974 3.386902 15.966797 5.080384 25.256714 5.080384zm-444.170471 52.545654v-297.855469h43.836426c9.289917 0 15.386291 4.354553 18.289368 13.063782l4.935241 23.514954c5.999756-6.193299 12.338013-11.805848 19.015137-16.83783 6.677124-5.032043 13.741211-9.386597 21.192444-13.063843 7.451294-3.677246 15.434631-6.48352 23.950378-8.418945 8.515747-1.935364 17.805481-2.903076 27.869507-2.903076 16.257324 0 30.675781 2.757934 43.255859 8.273803 12.580018 5.51587 23.079407 13.257325 31.498353 23.224549 8.418945 9.967285 14.805664 21.869812 19.160278 35.707825 4.354614 13.838073 6.531982 29.079101 6.531982 45.723449v189.570801h-71.705993v-189.570801c0-18.192688-4.209412-32.272461-12.628418-42.239746-8.418946-9.967285-21.047181-14.950806-37.885132-14.950806-12.386475 0-23.998657 2.806275-34.836853 8.418885-10.838196 5.612671-21.095642 13.257324-30.772644 22.934326v215.408142zm-70.544739 0h-32.224121c-6.773864 0-12.09613-1.016052-15.966919-3.048218-3.870788-2.032165-6.773803-6.144836-8.709228-12.338074l-6.386719-21.192443c-7.548035 6.773864-14.950806 12.725097-22.208557 17.853881-7.25769 5.128785-14.757263 9.434998-22.49884 12.918702-7.741578 3.483703-15.966858 6.096435-24.676087 7.838318-8.709289 1.741882-18.386108 2.612731-29.030762 2.612731-12.580078 0-24.19226-1.69342-34.836914-5.080322-10.644653-3.386963-19.789245-8.467285-27.434051-15.241211-7.644806-6.773803-13.596069-15.192688-17.853912-25.256714-4.257874-10.064087-6.38678-21.77301-6.38678-35.127197 0-11.225342 2.951446-22.305298 8.85437-33.240234 5.902954-10.934937 15.724945-20.805298 29.466247-29.611328 13.741272-8.806031 32.030457-16.112061 54.868103-21.918213 22.837647-5.806214 51.190735-9.096314 85.060059-9.870484v-17.418457c0-19.93457-4.209412-34.691711-12.628357-44.271911-8.418945-9.580201-20.660156-14.370179-36.723877-14.370179-11.612366 0-21.289184 1.354737-29.030762 4.06427-7.741577 2.709534-14.46698 5.757752-20.176391 9.144715-5.709412 3.386902-10.983277 6.435119-15.821716 9.144653-4.838501 2.709595-10.160767 4.064331-15.966919 4.064331-4.838501 0-8.999512-1.257995-12.483216-3.773987-3.483703-2.516052-6.289978-5.612609-8.418945-9.289856l-13.063843-22.934326c34.25647-31.353332 75.576477-47.029785 123.961304-47.029785 17.418518 0 32.949829 2.854675 46.59436 8.564087s25.208313 13.644409 34.691773 23.805176c9.483398 10.160827 16.692627 22.305237 21.627868 36.433594 4.935242 14.128418 7.402832 29.611328 7.402832 46.449218zm-139.347595-44.707397c7.354492 0 14.128296-.677369 20.321533-2.032105 6.193299-1.354736 12.04773-3.386902 17.563599-6.096435 5.515869-2.709595 10.838135-6.048096 15.966919-10.015625 5.128784-3.96753 10.305908-8.660828 15.531433-14.079957v-50.223144c-20.902222.967651-38.368896 2.757873-52.400452 5.370666-14.031616 2.612793-25.305114 5.951294-33.820861 10.015564-8.515686 4.064331-14.563721 8.806031-18.144227 14.225098-3.580444 5.419128-5.370666 11.32196-5.370666 17.70874 0 12.580078 3.725586 21.579529 11.176819 26.998658 7.451294 5.419067 17.176514 8.12854 29.175903 8.12854zm-190.731994-54.287476c4.257843 0 7.935058 1.645081 11.031677 4.935242l30.772583 33.385376c-17.031464 21.095764-37.981751 37.256042-62.851563 48.481384-24.869812 11.22522-54.722778 16.837768-89.559875 16.837768-31.159821 0-59.17421-5.322265-84.044007-15.966918-24.869812-10.644654-46.110427-25.450196-63.722503-44.416993-17.612076-18.966919-31.111237-41.610595-40.497895-67.932007-9.386657-26.321289-14.079917-55.061462-14.079917-86.221313 0-31.546875 5.225486-60.43219 15.676605-86.656799 10.451126-26.224549 25.159889-48.819947 44.126747-67.786804 18.966843-18.966797 41.658997-33.724 68.077103-44.271851 26.418121-10.547913 55.593719-15.821777 87.52771-15.821777 31.15982 0 58.400085 4.983581 81.721557 14.950866 23.321503 9.967224 43.304138 23.176087 59.948517 39.626953l-26.127686 36.288453c-1.548309 2.322448-3.532073 4.354553-5.951293 6.096435-2.419251 1.741821-5.757752 2.612793-10.015625 2.612793-4.451386 0-8.999512-1.741882-13.64444-5.225586-4.644959-3.483703-10.547821-7.257629-17.708771-11.32196s-16.208771-7.838318-27.143738-11.322022c-10.934967-3.483703-24.821228-5.225525-41.659118-5.225525-19.741028 0-37.885071 3.435303-54.432679 10.305908-16.547607 6.870667-30.772522 16.692627-42.675201 29.466248-11.902664 12.77356-21.192413 28.304871-27.869507 46.59436-6.677109 18.289429-10.01561 38.852662-10.01561 61.690308 0 23.611816 3.338501 44.610474 10.01561 62.996704 6.677094 18.386231 15.72493 33.869141 27.143738 46.449219 11.418823 12.580078 24.869598 22.208496 40.352753 28.88562 15.483154 6.677124 32.127258 10.015625 49.932891 10.015625 10.644654 0 20.273102-.580627 28.88559-1.741882 8.612488-1.161194 16.547485-2.999817 23.805206-5.515808 7.257721-2.515992 14.128266-5.757752 20.611847-9.725342 6.483551-3.96753 12.91864-8.85437 19.305451-14.660523 1.935394-1.741821 3.967529-3.145019 6.096466-4.209472 2.128906-1.064453 4.451355-1.59668 6.967377-1.59668z"/><path d="m1424.651367 422.824097s-28.979858-6.581116-25.349853-40.023987c4.394775-40.48938 42.176391-93.265198 48.557617-126.666504 6.381348-33.401306-7.20398-94.495056-7.20398-94.495056-2.220092-14.20752-1.704834-45.972412 2.248047-39.709473 1.715943 2.718628 31.653321 90.982605 31.653321 90.982605s13.495971 50.637451 14.831787 89.410095c1.335815 38.772583-23.307129 76.697754-23.307129 76.697754s-21.7677 45.072449-41.42981 43.804566z"/></g></svg>