<svg height="100" viewBox="0 0 100 100" width="100" xmlns="http://www.w3.org/2000/svg" xmlns:xlink="http://www.w3.org/1999/xlink"><linearGradient id="a" gradientUnits="userSpaceOnUse" x1="69.811493" x2="53.028671" y1="-31.64113" y2="104.969704"><stop offset="0" stop-color="#006007"/><stop offset="1" stop-color="#00ae41"/></linearGradient><linearGradient id="b"><stop offset="0" stop-color="#00b80d"/><stop offset="1" stop-color="#00dd52"/></linearGradient><linearGradient id="c" gradientUnits="userSpaceOnUse" x1="62.292556" x2="52.30278" xlink:href="#b" y1="34.836262" y2="56.278173"/><linearGradient id="d" gradientUnits="userSpaceOnUse" x1="48.329029" x2="47.080375" xlink:href="#b" y1="45.254345" y2="51.102096"/><linearGradient id="e" gradientUnits="userSpaceOnUse" x1="55.620302" x2="54.371647" xlink:href="#b" y1="45.254345" y2="51.102096"/><g fill-rule="evenodd" stroke="#000" stroke-linecap="round" stroke-linejoin="round"><path d="m39 14c-5.5228 0-10 4.477203-10 10v53c0 5.522797 4.4772 10 10 10h22c5.522797 0 10-4.477203 10-10v-53c0-5.522797-4.477203-10-10-10z" fill="url(#a)" stroke-width="3"/><g stroke-width="2.083221"><path d="m63 53.457718s-1.124157-11.425778-12.499325-11.457714c-12.897957-.036213-12.499325 11.457714-12.499325 11.457714z" fill="url(#c)"/><path d="m48.417454 48.77047c0-.862896-.699517-1.562416-1.562416-1.562416-.862896 0-1.562413.69952-1.562413 1.562416 0 .862899.699517 1.562416 1.562413 1.562416.862899 0 1.562416-.699517 1.562416-1.562416z" fill="url(#d)"/><path d="m55.708729 48.77047c0-.862896-.69952-1.562416-1.562416-1.562416-.8629 0-1.562416.69952-1.562416 1.562416 0 .862899.699516 1.562416 1.562416 1.562416.862896 0 1.562416-.699517 1.562416-1.562416z" fill="url(#e)"/></g></g></svg>