<svg enable-background="new 0 0 1000 1000" viewBox="0 0 1000 1000" xmlns="http://www.w3.org/2000/svg" xmlns:xlink="http://www.w3.org/1999/xlink" fill="#fff"><mask id="a" height="17.758" maskUnits="userSpaceOnUse" width="681.003" x="106.893" y="933.847"><path d="m787.9 951.61v-17.76h-655.13l-25.88 17.76z" fill="#fff"/></mask><linearGradient id="b" gradientUnits="userSpaceOnUse" x1="106.89" x2="792.04" y1="942.73" y2="942.73"><stop offset="0" stop-color="#fff"/><stop offset=".0333" stop-color="#e4e4e4"/><stop offset=".0979" stop-color="#b4b4b4"/><stop offset=".1682" stop-color="#898989"/><stop offset=".2426" stop-color="#646464"/><stop offset=".3221" stop-color="#454545"/><stop offset=".4084" stop-color="#2c2c2c"/><stop offset=".5039" stop-color="#181818"/><stop offset=".6139" stop-color="#0a0a0a"/><stop offset=".7511" stop-color="#020202"/><stop offset="1"/></linearGradient><path d="m787.9 951.61v-17.76h-655.13l-25.88 17.76z" mask="url(#a)" opacity=".1"/><path d="m895.86 111.15c0-35.853-29.334-65.187-65.187-65.187h-649.32c-35.853 0-65.187 29.334-65.187 65.187v511.26c0 35.853 29.334 65.187 65.187 65.187h37.066l-92.613 216.56c-1.73 4.046-4.561 10.666-6.291 14.711l-12.233 28.604c-1.73 4.046-.14 5.374 3.533 2.951l30.308-19.991c3.673-2.423 9.683-6.387 13.356-8.81l354.82-234.03h321.37c35.853 0 65.187-29.334 65.187-65.187l-.01-511.25zm-189.33 446.27h-149.43v-146.4h-101.27v146.4h-149.42v-289.74h-63.082l263.14-119.35 263.14 119.35h-63.082v289.74z"/></svg>