<svg height="1000" viewBox="0 0 1000 1000" width="1000" xmlns="http://www.w3.org/2000/svg"><path d="m895.859985 111.150024c0-35.853027-29.333984-65.187011-65.187011-65.187011h-649.319977c-35.852997 0-65.186997 29.333984-65.186997 65.187011v511.259949c0 35.853027 29.334 65.187012 65.186997 65.187012h37.066009l-92.613006 216.559997c-1.730004 4.046021-4.560997 10.666016-6.291001 14.710999l-12.233001 28.604004c-1.729996 4.04602-.14 5.374023 3.533004 2.950989l30.307999-19.990967c3.673004-2.423035 9.682999-6.387024 13.356003-8.809998l354.820007-234.030029h321.369995c35.852967 0 65.187012-29.333984 65.187012-65.186951l-.01001-511.25zm-189.329956 446.269959h-149.430053v-146.399963h-101.269989v146.399963h-149.419983v-289.73999h-63.082001l263.139984-119.349976 263.139984 119.349976h-63.08197v289.73999z" fill="#fff"/></svg>