<svg height="2750" viewBox="0 0 2750 2750" width="2750" xmlns="http://www.w3.org/2000/svg"><g fill-rule="evenodd"><path d="m1374.984985 350.271484c676.003052 0 1224.015015 548.011719 1224.015015 1224.019532 0 444.180786-236.597168 833.081054-590.640625 1047.591552h-1266.75116c-354.041259-214.510498-590.642807-603.410766-590.642807-1047.591552 0-676.007813 548.009323-1224.019532 1224.019577-1224.019532z" fill="#93b7ce"/><path d="m1444.24646 662.163574c703.700806 352.606201 373.091919 865.825073 151.851196 714.218506-232.850586-159.570679-299.6427-473.719726-151.851196-714.218506z" fill="#fff"/><path d="m1213.314941 662.163574c-703.700286 352.606201-373.089416 865.825073-151.860107 714.218506 232.8573-159.570679 299.651733-473.719726 151.860107-714.218506z" fill="#fff"/><path d="m1545.619263 495.892578c33.837768 6.97461 53.90039 45.687744 44.812622 86.470703-9.083252 40.778565-43.889649 68.186035-77.71875 61.213379-33.837891-6.972168-53.905274-45.690185-44.812622-86.470703 9.083008-40.780518 43.885254-68.187744 77.71875-61.213379zm-433.679322 0c-33.83789 6.97461-53.902832 45.687744-44.812622 86.470703 9.08545 40.778565 43.885376 68.186035 77.723267 61.213379 33.836304-6.972168 53.898437-45.690185 44.812866-86.470703-9.089722-40.780518-43.88501-68.187744-77.723511-61.213379z" fill="#f0834d"/><path d="m1485.312988 1646.778076 274.569825 97.511719c93.797363 33.30835 177.122192 90.375122 215.547607 182.189697 92.39917 220.760498 144.545654 456.279297 153.966309 695.403076h-772.386231-56.454712-772.393494c9.423768-239.123779 61.569825-474.642578 153.966431-695.403076 38.427796-91.814575 121.752991-148.881347 215.549927-182.189697l274.570251-97.511719 156.529541 97.511719z" fill="#007ccc"/><path d="m1009.395874 1769.245972 162.853027-122.467896 34.057495-392.909668-315.940551 173.27063z" fill="#041065"/><path d="m852.950623 1461.19873c-84.031189 130.733277-250.109864 463.74524-325.382081 599.86084-30.507202 55.161133 100.897339 251.852784 197.454224 142.023194 110.700012-125.912842 203.976685-266.140503 277.325073-416.894898 69.336975-142.512329-56.061584-470.194824-149.397216-324.989136z" fill="#041065"/><path d="m713.177795 2107.279541-11.932067-4.911621c-25.58899-10.535889-44.524964-32.769043-50.866944-59.694336-8.22644-34.952881-42.295044-57.404785-77.65271-51.181641-77.291534 13.596924-156.287536 14.483643-233.864532 2.608765-17.355438-2.654663-34.968781 2.745972-47.855713 14.666626-12.884583 11.915771-19.637756 29.058594-18.340363 46.567139 6.926758 93.504638 83.233918 166.745849 176.949066 169.834961 24.418854.812988 46.044098 15.995605 55.083771 38.69458 10.947144 27.491943 33.920288 48.440674 62.31189 56.80664 28.389648 8.370606 59.048035 3.234864 83.16095-13.926513 16.5531-11.779053 31.615112-25.522705 44.849182-40.933594l-2.4469-32.535889 31.40741-29.515869c13.921814-13.090088 20.859802-31.959961 18.737671-50.939941-2.127014-18.98877-12.052796-38.333741-29.540711-45.539307z" fill="#fff"/><path d="m1648.166138 1769.245972-162.85315-122.467896-34.062134-392.909668 315.947144 173.27063z" fill="#041065"/><path d="m1804.613647 1461.19873c84.028321 130.733277 250.1073 463.74524 325.377564 599.86084 30.50708 55.161133-100.897949 251.852784-197.450073 142.023194-110.702515-125.912842-203.97876-266.140503-277.329834-416.894898-69.334473-142.512329 56.062011-470.194824 149.402343-324.989136z" fill="#041065"/><path d="m1944.379517 2107.279541 11.934448-4.911621c25.59082-10.535889 44.529541-32.769043 50.866821-59.694336 8.228394-34.952881 42.295044-57.404785 77.654663-51.181641 77.289307 13.596924 156.287598 14.483643 233.869141 2.608765 17.348389-2.654663 34.962158 2.745972 47.851562 14.666626 12.884522 11.915771 19.637207 29.058594 18.339844 46.567139-6.926514 93.504638-83.233398 166.745849-176.953125 169.834961-24.416748.812988-46.037109 15.995605-55.079834 38.69458-10.947021 27.491943-33.924316 48.440674-62.311767 56.80664-28.391846 8.370606-59.049927 3.234864-83.160401-13.926513-16.553589-11.779053-31.617554-25.522705-44.854004-40.933594l2.448975-32.535889-31.407471-29.515869c-13.912475-13.090088-20.857422-31.959961-18.73291-50.939941 2.124634-18.98877 12.048462-38.333741 29.534058-45.539307z" fill="#fff"/><path d="m1172.248901 1190.014404h313.064087v456.763672l-156.534546 97.511719-156.529541-97.511719z" fill="#ed521f"/><path d="m1030.68042 971.898682h596.203369v348.551757c0 163.954346-134.150879 298.100342-298.105347 298.100342-163.954101 0-298.098022-134.145996-298.098022-298.100342z" fill="#f63"/><path d="m1626.883789 1288.915283v31.535156c0 28.917481-4.190063 56.900147-11.966553 83.393555-42.738281-64.109985-146.733764-109.754516-269.347534-114.622681-131.306396-5.2135-252.611572 37.582276-305.490723 105.379395-6.134155-23.729126-9.398559-48.577515-9.398559-74.150269v-28.298461l13.400757-15.022828 445.7229-63.180053z" fill="#ed521f"/><path d="m1451.250854 1417.114502c-2.741088 65.03772-56.783569 117.393921-122.472412 117.393921-65.683838 0-119.726318-52.356201-122.472046-117.393921z" fill="#fff"/><path d="m1626.883789 1234.920776 40.618408-184.955688c20.59253-93.753906-10.207031-191.884644-79.546753-253.456787-72.354614-64.244629-165.375-95.716309-259.177002-87.681763-93.796997-8.034546-186.822021 23.437134-259.174682 87.681763-69.343933 61.572143-100.138916 159.702881-79.546265 253.456787l40.622925 184.955688 17.113159-201.395141c6.933472-20.425659 22.623291-36.053711 42.18103-42.023194 19.56482-5.967285 40.623047-1.549194 56.614624 11.883667 38.039429 31.946412 85.036255 49.320191 133.433228 49.320191h48.755981 48.75586c48.404052 0 95.401367-17.373779 133.442627-49.320191 15.991699-13.432861 37.041015-17.850952 56.605346-11.883667 19.564576 5.969483 35.25 21.597535 42.181275 42.023194z" fill="#3d1f00"/><path d="m1115.469604 385.368164h426.622315v249.413086c0 117.32312-95.985596 213.310913-213.313477 213.310913-117.318481 0-213.308838-95.987793-213.308838-213.310913z" fill="#f96"/><path d="m1416.41687 703.951538c-1.964599 46.537842-40.637085 84.005982-87.638428 84.005982-47.001464 0-85.673339-37.46814-87.637939-84.005982z" fill="#fff"/><path d="m1417.860718 1123.331665 29.552368.354126c40.636475.491333 78.650635 20.160889 102.528198 53.046265l-17.088013 20.610962c-43.588256-25.150147-54.681762-28.937989-119.561645-28.937989zm-178.161621 0-29.552368.354126c-40.639527.491333-78.655884 20.160889-102.53357 53.046265l17.088379 20.610962c43.594849-25.150147 54.688477-28.937989 119.568482-28.937989z" fill="#3d1f00"/><path d="m1542.091919 552.993896 22.785522-48.755859c54.741211-117.126709 16.540039-256.664307-90.224243-329.57666-106.763916-72.912109-250.635254-57.713379-339.810547 35.896973-89.173584 93.607421-97.374755 238.049316-19.373047 341.151611l19.5896-91.094482c106.081299-46.300049 281.357666-45.071045 391.324585-8.982911z" fill="#3d1f00"/><g fill="#f96"><path d="m1579.612549 1210.921875-2.919434-17.780151c-4.016235-28.44458-19.875122-53.866089-43.666137-69.974244-27.811402-18.840454-38.607911-28.8833-43.80774-62.069946-2.531128-16.149414-22.689575-3.184814-29.031494 24.042237-3.403808 14.627319 21.405762 30.379028 22.927246 59.289428-56.874756 6.216065-130.303711-6.117798-171.173218.664795-13.524169 2.24353-22.87268 18.888306.909058 24.814331 24.562988 6.120117 55.93396 3.074707 83.672241 13.311646l-.233032 3.273681c-24.265869 5.475952-51.885376 3.591431-85.154907 8.962525-24.903076 4.020386-28.732178 29.867676 5.999389 35.455322-6.001586 7.822266-3.689575 20.437378 5.067139 25.234375 17.716187 9.709106 78.561768 7.46814 106.515015 1.551514l3.330688 9.437378c-13.675293 7.796875-33.925049 8.369995-51.442383 17.816772-30.480224 16.439453-21.252929 35.190552 9.695069 29.134155 16.969482-3.321533 42.537597-12.341064 59.7948-18.870117 28.304931-2.601806 39.85559-9.720459 68.078247-12.898193 36.387451-4.093872 62.499511-34.986939 61.439453-71.395508z"/><path d="m1531.28186 1163.943359 44.671021 21.463013c35.464599 17.040161 76.905517 16.26355 111.703125-2.092285 27.866577-14.700806 61.768555-11.705933 86.619385 7.650513 24.864257 19.361328 36.072143 51.4906 28.64331 82.111938-15.000366 61.862305-69.645752 105.973755-133.278442 107.591187-63.64148 1.612671-120.452637-39.665894-138.573242-100.689698-11.248902-37.869873-11.171265-78.205322.214843-116.034668z"/><path d="m1077.948975 1210.921875 2.917236-17.780151c4.016235-28.44458 19.877808-53.866089 43.664185-69.974244 27.815917-18.840454 38.60791-28.8833 43.80957-62.069946 2.531128-16.149414 22.689697-3.184814 29.029175 24.042237 3.404174 14.627319-21.403443 30.379028-22.922608 59.289428 56.875366 6.216065 130.30127-6.117798 171.171387.664795 13.526367 2.24353 22.869751 18.888306-.909424 24.814331-24.560791 6.120117-55.931763 3.074707-83.672607 13.311646l.235351 3.273681c24.261719 5.475952 51.883789 3.591431 85.152832 8.962525 24.901245 4.020386 28.734375 29.867676-6.001343 35.455322 6.003663 7.822266 3.694214 20.437378-5.064697 25.234375-17.716308 9.709106-78.564331 7.46814-106.517334 1.551514l-3.328247 9.437378c13.667603 7.796875 33.929077 8.369995 51.444458 17.816772 30.477295 16.439453 21.248291 35.190552-9.700195 29.134155-16.966675-3.321533-42.528076-12.341064-59.792359-18.870117-28.305053-2.601806-39.859863-9.720459-68.0802-12.898193-36.380859-4.093872-62.497192-34.986939-61.43518-71.395508z"/><path d="m1126.275391 1163.943359-44.669068 21.463013c-35.461914 17.040161-76.903198 16.26355-111.703186-2.092285-27.866089-14.700806-61.763489-11.705933-86.618896 7.650513-24.862427 19.361328-36.06781 51.4906-28.64563 82.111938 15.004516 61.862305 69.645691 105.973755 133.282593 107.591187 63.63739 1.612671 120.446106-39.665894 138.57135-100.689698 11.246582-37.869873 11.171264-78.205322-.217163-116.034668z"/></g><path d="m1375.057861 518.794678v-40.835205l23.539917 4.264892c21.693482 3.929688 42.582764 11.440674 61.809204 22.221436l-10.302856 22.808349c-14.817261-5.592285-30.51648-8.459472-46.352783-8.459472z" fill="#3d1f00"/><path d="m1411.875244 608.561768c15.095825 0 27.409546-15.865479 27.409546-35.318116 0-19.452636-12.313721-35.316162-27.409546-35.316162-15.096069 0-27.404785 15.863526-27.404785 35.316162 0 19.452637 12.308716 35.318116 27.404785 35.318116z" fill="#1a1a1a"/><path d="m1282.505981 524.739014v-40.83545l-23.546386 4.267579c-21.691773 3.928955-42.578736 11.440673-61.802735 22.221191l10.296265 22.808594c14.814941-5.594971 30.520752-8.461914 46.357178-8.461914z" fill="#3d1f00"/><path d="m1245.684326 614.506348c15.098023 0 27.409546-15.868409 27.409546-35.316162 0-19.45459-12.311523-35.31836-27.409546-35.31836-15.09375 0-27.404663 15.86377-27.404663 35.31836 0 19.447753 12.310913 35.316162 27.404663 35.316162z" fill="#1a1a1a"/><path d="m1328.778442 660.475098c22.523072 0 40.78772-5.944336 40.78772.575927 0 6.515381-18.264648 36.362549-40.78772 36.362549-22.520263 0-40.782959-29.847168-40.782959-36.362549 0-6.520263 18.262696-.575927 40.782959-.575927z" fill="#f0834d"/><path d="m888.154724 2207.820801v61.585693c0 124.194824 33.817444 246.050049 97.815552 352.476074h-161.662964zm881.250183 0v61.585693c0 124.194824-33.815552 246.050049-97.813598 352.476074h161.665161z" fill="#0168aa"/></g></svg>