<svg height="2750" viewBox="0 0 2750 2750" width="2750" xmlns="http://www.w3.org/2000/svg"><g fill-rule="evenodd"><path d="m1618.582764 2557.463867c566.982177 0 1029.417236-462.425781 1029.417236-1029.412842 0-566.982177-462.435059-1029.409912-1029.417236-1029.409912-566.977295 0-1029.409912 462.427735-1029.409912 1029.409912 0 566.987061 462.432617 1029.412842 1029.409912 1029.412842z" fill="#aad7f4"/><path d="m2002.28064 1621.420532 10.216674 321.450073c2.249756 70.741944 6.338379 141.400147 12.261475 211.932129 11.023804 131.155518 15.112549 262.810547 12.265503 394.399903l204.361694 85.835937 4.083985-85.835937c7.155029-150.239991-5.899658-300.769532-38.832032-447.541504l36.787842-562.539429z" fill="#1f1e0e"/><path d="m2323.128662 1486.542725 123.63208 546.658935c85.962158 210.256104 144.074707 380.542236 158.384766 601.836914l-232.473389-26.561279c-63.960693-167.121826-94.85791-337.631592-104.724609-521.396729l-143.117676-461.571777z" fill="#2e2c15"/><path d="m2070.586426 1250.886719-42.383179 63.138916c-37.543945 55.928467-91.250366 99.079712-153.955444 123.685547l-19.896607-8.64856c-87.637695-38.103638-151.663452-115.963257-172.120361-209.313965l79.353027-52.226806 97.957276 84.228149 61.934814-74.471191c13.455689-48.255249 31.956909-75.792115 70.401611-96.788086 30.813111-16.825562 68.445923-15.089234 97.574341 4.504028 29.13794 19.5979 44.932129 53.790527 40.964844 88.678589-3.972168 34.885498-27.033203 64.660522-59.830322 77.213379z" fill="#c91622"/><path d="m833.10614 2001.21167h502.718323v-116.682373h-502.718323z" fill="#54502b"/><path d="m778.949463 2475.440918h611.032104v-548.107666h-611.032104z" fill="#1f1e0e"/><path d="m1293.842407 1326.706543c42.754761 33.847534 49.96521 95.947998 16.118408 138.697876-33.847045 42.754761-95.945556 49.965698-138.697876 16.11853-42.75-33.849365-49.965698-95.945434-16.11621-138.697632 33.847412-42.75 95.947753-49.968139 138.695678-16.118774z" fill="#2e2c15"/><path d="m2164.800537 226.703857c223.315918 176.815186 261.013428 501.189698 84.192871 724.503296-92.612793 116.971558-225.7052 182.994751-363.553345 193.956055-111.427001 8.856079-204.007324 58.259277-273.391479 145.894653l-2.865601 3.622193-356.478393-282.254761 2.865845-3.621704c69.383789-87.630493 96.24646-189.076538 79.315795-299.560791-20.946655-136.688355 12.793213-281.376343 105.413331-398.343384 176.813232-223.318115 501.184936-261.013672 724.500976-84.195557z" fill="#ffe500"/><path d="m2112.727539 308.738281c44.101074 127.090332-66.182251 280.786377-246.316162 343.288086-180.133911 62.502442-361.911011 10.142578-406.011963-116.947998-44.08728-127.092773 66.186646-280.786377 246.325317-343.285644 180.129517-62.504883 361.906128-10.147217 406.002808 116.945556z" fill="#ffed4f"/><path d="m1252.70459 1012.425293 356.478393 282.254761-193.543212 244.44165-356.480225-282.249267z" fill="#6e6940"/><path d="m1113.162354 1387.465454 162.97705 129.043579 139.500367 22.612671-356.480225-282.249267z" fill="#54502b"/><path d="m1459.725098 1176.345459 357.394775-451.390015-57.561523-45.578247-357.402344 451.387574-57.743652-45.718384 357.402465-451.390137-71.054687-56.254639-2.511109-2.728027c-26.290893-28.472656-39.130493-64.663086-38.62622-100.610596.498901-36.071289 14.304687-71.92749 41.286255-99.567383 27.047119-27.70996 62.565185-42.402343 98.559326-43.762451 36.008301-1.36792 72.51123 10.571534 101.536865 36.105713 29.063477 25.56543 45.566772 60.252686 48.79187 96.111328 3.239014 35.982422-6.762695 73.11084-30.738647 103.384766l-43.788697 55.300537 57.571045 45.578857 43.784058-55.298095c23.97583-30.276856 57.818115-48.535401 93.588379-53.634278 35.634888-5.07788 73.187866 3.033936 104.734009 25.455323 31.508545 22.398193 51.499023 55.197998 58.429931 90.554687 6.926026 35.342896.774658 73.281006-19.999511 105.963867-20.718262 32.603272-52.450928 54.2594-87.44629 63.022095-34.874267 8.730469-73.043212 4.537109-106.787597-14.52185l-3.229614-1.822754-71.050293-56.257325-357.397828 451.387696zm504.64331-518.710693-43.783691 55.297851 67.624145 53.542847c15.892212 8.060303 33.651245 9.635864 50.019409 5.538086 17.245606-4.312622 32.923096-15.056885 43.214356-31.254761 10.244873-16.115845 13.269287-34.869141 9.843506-52.359619-3.425781-17.486084-13.329834-33.726318-28.951172-44.820068-15.579468-11.077881-34.164917-15.075196-51.830444-12.557373-17.544434 2.50122-34.216187 11.558593-46.136109 26.613037zm-284.457031-135.265381 67.619385 53.54541 43.783691-55.298096c11.920654-15.054199 16.90979-33.361328 15.32312-51.006103-1.605835-17.778076-9.754638-34.955811-24.102173-47.580811-14.384643-12.653076-32.456298-18.571045-50.266845-17.892334-17.81482.672608-35.368653 7.920899-48.707642 21.584473-13.408935 13.735351-20.270019 31.462158-20.517212 49.22998-.237915 16.877198 5.37207 33.793457 16.867676 47.417481z" fill="#ffc"/><path d="m1668.471558 675.764404 33.343261-42.108154-71.054687-56.254639-2.511109-2.728027c-26.290893-28.472656-39.130493-64.663086-38.62622-100.610596.498901-36.071289 14.304687-71.92749 41.286255-99.567383 27.047119-27.70996 62.565185-42.402343 98.559326-43.762451 36.008301-1.36792 72.51123 10.571534 101.536865 36.105713 29.063477 25.56543 45.566772 60.252686 48.79187 96.111328 3.239014 35.982422-6.762695 73.11084-30.738647 103.384766l-43.788697 55.300537 45.053467 35.66333c-62.905762 19.450684-125.48938 25.032715-181.851684 18.465576zm209.803955-28.04541c58.53247-21.985351 109.209839-53.653076 148.998413-90.750976-9.063843-.406006-18.123047.039795-27.060669 1.313964-35.770264 5.098877-69.612549 23.357422-93.588379 53.634278zm-198.364136-125.349609 67.619385 53.54541 43.783691-55.298096c11.920654-15.054199 16.90979-33.361328 15.32312-51.006103-1.605835-17.778076-9.754638-34.955811-24.102173-47.580811-14.384643-12.653076-32.456298-18.571045-50.266845-17.892334-17.81482.672608-35.368653 7.920899-48.707642 21.584473-13.408935 13.735351-20.270019 31.462158-20.517212 49.22998-.237915 16.877198 5.37207 33.793457 16.867676 47.417481z" fill="#fffff0"/><path d="m1289.378174 1041.465332 90.645752 71.773682-193.543213 244.442382-90.648071-71.773803z" fill="#827d53"/><path d="m1176.023682 1074.738403 419.31604 271.953736-35.480591 44.812744-419.318604-271.953369zm-66.128418 83.516358-35.481079 44.815552 419.318847 271.951049 35.480591-44.815063z" fill="#827d53"/><path d="m1219.821533 1103.145996 91.362183 59.248535-35.48291 44.817993-91.362671-59.253784zm25.231568 142.765015-91.357911-59.248413-35.480712 44.8125 91.359741 59.253784z" fill="#948f64"/><path d="m2244.592285 1058.356323c115.809815 63.962891 63.307129 296.799927 127.855957 468.355591l-41.515381 21.343262c-41.753906 21.460205-76.996582 53.711303-102.059814 93.411133-52.082276 82.475586-160.816406 107.730224-243.917359 56.651367-13.362426-64.823975-27.513549-123.776367-28.264892-190.798218-.690918-62.068481-6.478272-123.977661-17.297241-185.098267-12.358643-69.845581 1.167114-141.808105 38.061889-202.394409 49.879395-81.932129 216.380249-89.500122 267.136841-61.470459z" fill="#e61e2b"/><path d="m507.149933 2549.202637 192.075043-73.761719h770.48059l192.077881 73.761719-539.90271 42.920166h-74.830444z" fill="#54502b"/><path d="m101.494583 2635.038574h451.635178v-42.915771h-451.635178z" fill="#1f1e0e"/><path d="m507.149933 2635.038574h1154.633514v-85.835937h-1154.633514z" fill="#1f1e0e"/><path d="m2201.755859 1046.069702c-47.615722-2.294067-52.744873-46.803833-52.744873-85.79187l3.533203-56.444092-87.418457-1.390747c14.58545 31.292114 9.320557 55.942261 13.456055 90.218872 12.498779 21.366944 2.935303 50.966553-30.062256 72.065308-40.717285 26.03186 26.757813 89.796387 153.236328-18.657471z" fill="#f63"/><path d="m2076.294922 955.876587c.489746 11.439697.662353 23.373657 2.286865 36.785278 6.254151 10.692871 6.30542 21.493042 2.856201 33.856568 21.684082 4.204956 36.297852-14.165284 36.297852-35.711914 0-19.765748-15.234131-35.786377-34.020264-35.786377-2.543457 0-5.035644.296264-7.420654.856445z" fill="#e84a15"/><path d="m2054.559082 732.493164c-113.102295 0-101.12146 85.967041-101.12146 167.994141 0 82.025268 54.752197 113.541504 78.970337 113.541504 24.223389 0 133.718262-31.516236 133.718262-113.541504 0-82.0271 1.535156-167.994141-111.567139-167.994141z" fill="#f63"/><path d="m1992.442017 948.306152c2.912597 17.157227 15.397461 23.938721 21.324829 23.938721 5.922973 0 30.183593-6.781494 35.928955-23.938721z" fill="#fff"/><path d="m1953.180908 845.67981-11.948242-29.187378c-12.400757-30.304566-6.188721-65.054932 15.953003-89.177369 22.146118-24.128051 56.222168-33.29895 87.483643-23.537109l79.567749 7.289917c23.919921 2.193482 42.154785 22.388916 41.88916 46.414185l9.824218 7.294433c18.104737 13.444336 28.102051 35.191407 26.52417 57.685669-3.280761 46.796631-32.358154 106.80835-53.085449 148.897827l-8.723144-52.093872-17.885254-46.002563h-27.38794l8.793457-53.522705c3.892334-23.702393-147.210937-16.619995-151.005371 25.938965z" fill="#2e2c15"/><path d="m2142.845703 836.384521c-12.862793 0-24.456543 17.756958-25.908203 39.658082-1.447021 21.898803 7.803711 39.655761 20.657227 39.655761 12.858642 0 24.461425-17.756958 25.912841-39.655761 1.446778-21.901124-7.803711-39.658082-20.661865-39.658082z" fill="#f63"/><g fill="#2e2c15"><path d="m2024.114502 861.877197v-15.978149l15.976196.125732c9.740357.079346 19.014527 3.427979 26.351197 9.516846l-2.889161 7.94812c-4.494384-1.047607-9.110351-1.579468-13.768066-1.58667z"/><path d="m2041.024048 869.317261c-6.268433.282348-11.350708 6.982055-11.350708 14.960571 0 7.981445 5.082275 14.217041 11.350708 13.934448 6.272827-.287109 11.346069-6.984985 11.346069-14.96582 0-7.978638-5.073242-14.214111-11.346069-13.929199z"/><path d="m1988.516724 863.494507v-15.980469l-11.089478 1.353516c-6.757812.825805-13.198852 4.886352-18.295532 11.53955l2.011597 7.726685c3.117431-1.393188 6.324096-2.277222 9.558593-2.641479z"/><path d="m1979.588623 872.231567c4.349487-.195922 7.878052 6.109864 7.878052 14.088501 0 7.980835-3.528565 14.608277-7.878052 14.804322-4.35022.198852-7.883057-6.111817-7.883057-14.087891 0-7.978638 3.532837-14.60852 7.883057-14.804932z"/></g><path d="m1995.326294 924.717896c-8.102295 0-9.35791-5.468018-9.35791-1.085328 0 4.38501 8.550659 16.958985 16.653198 16.958985 8.102173 0 12.685669-12.573975 12.685669-16.958985 0-4.38269-11.878174 1.085328-19.980957 1.085328z" fill="#e84a15"/><path d="m1922.120239 1123.691284 14.230469-18.036499c10.57605-13.406982 14.98645-30.671264 12.144165-47.515381-3.322998-19.689453-3.439697-28.453979 8.690796-44.323364 5.903686-7.724365-10.926514-14.015747-25.231445-5.558227-7.691895 4.547851-7.06189 18.230102-18.860596 30.759521-26.038574-21.894409-52.287598-57.906982-71.993164-72.693237-6.524536-4.891114-20.960449.712158-13.735718 13.37207 7.458252 13.075195 17.861817 19.653931 24.853394 35.788818-15.500244-9.894531-16.452271-13.834106-34.607911-27.576538-11.957885-9.054931-24.638671-.084228-12.779296 17.142823-2.272705.247192-4.513062 1.376953-6.225953 3.220336-2.408325 2.588013-3.378906 6.170044-2.538818 9.322998 3.103638 11.605103 26.435425 42.124268 40.465332 51.711182l-1.62439 2.000122c-8.975097-2.674438-22.575561-12.34497-33.833374-15.994995-23.826049-7.729004-24.797241 16.622437 4.406128 28.250977 7.575318 3.0177 15.019532 6.280029 22.323609 9.777954l18.300415 15.936645c16.942261 14.755615 31.742309 28.050171 50.761719 40.003174z" fill="#f63"/><path d="m2021.752563 1384.074585-18.426147-11.446533c-81.178467-50.434571-133.214111-136.767823-139.8927-232.101685 25.203247-25.278198 54.089355-38.022217 86.106933-40.143799l84.678223 97.565308 72.090942-64.684082c20.330811-45.786255 42.626709-70.340332 83.717286-85.528076 82.43872-30.474732 146.357177 56.920166 126.675048 131.216308-17.46997 65.932373-225.280761 188.943604-294.949585 205.122559z" fill="#c91622"/><path d="m2079.986572 2479.893311-31.676758 32.694335c-18.921508 19.53711-43.65332 32.438233-70.504516 36.787842-10.935425 1.768799-20.335449 8.736817-25.212525 18.692139-4.877441 9.950928-4.615966 21.646728.690918 31.373779 7.957642 14.594727 19.579468 26.860352 33.716553 35.597168h254.385742z" fill="#1f1e0e"/><path d="m2443.745605 2479.893311-31.676757 32.694335c-18.925537 19.53711-43.653321 32.438233-70.499512 36.787842-10.944824 1.768799-20.344727 8.736817-25.212891 18.692139-4.877197 9.950928-4.615722 21.646728.68628 31.373779 7.962402 14.594727 19.584228 26.860352 33.716552 35.597168h254.386231z" fill="#2e2c15"/></g></svg>