<svg height="2750" viewBox="0 0 2750 2750" width="2750" xmlns="http://www.w3.org/2000/svg"><g fill-rule="evenodd"><path d="m2023.43457 1029.755981-9.321655 23.661011c-15.669556 39.786255-37.963135 76.63147-65.92749 108.981201l-51.658814-94.641723 73.849121-53.056519z" fill="#bf7307"/><path d="m725.821655 1029.755981 9.321656 23.661011c15.671997 39.786255 37.963195 76.63147 65.92749 108.981201l51.656433-94.641723-73.846802-53.056519z" fill="#bf7307"/><path d="m1271.719849 840.927856 15.973144-4.296997c20.759766-5.582397 37.440308-21.02832 44.605225-41.298217 7.160278-20.269654 3.883545-42.766358-8.756592-60.154053l51.084351-7.528809 51.088623 7.528809c-12.640259 17.387695-15.916871 39.884399-8.751831 60.154053 7.165039 20.269897 23.843139 35.71582 44.600463 41.298217l15.973267 4.296997 20.953613 43.382081.718994 1.432983-124.583129 66.679443-124.573975-66.679443.716431-1.432983z" fill="#f25353"/><path d="m1587.25293 471.023926c25.537475 0 41.720459 27.444092 36.138183 61.299804-5.578125 33.857666-30.802978 61.302002-56.34497 61.302002-25.542237 0-41.720581-27.444336-36.142579-61.302002 5.578003-33.855712 30.807496-61.299804 56.349366-61.299804zm-425.247559 0c-25.539551 0-41.720581 27.444092-36.1427 61.299804 5.580566 33.857666 30.807495 61.302002 56.347412 61.302002s41.720703-27.444336 36.142578-61.302002c-5.580322-33.855712-30.807373-61.299804-56.34729-61.299804z" fill="#f25050"/><path d="m1187.209351 330.488037h374.837646v221.529053c18.563843 28.293945 29.393066 62.062988 29.393066 98.240478v.002442c0 98.978515-80.981689 179.959472-179.957397 179.959472h-73.704346c-98.980468 0-179.964477-80.980957-179.964477-179.959472v-.002442c0-36.17749 10.831665-69.946533 29.395508-98.240478z" fill="#f66"/><path d="m1447.405884 713.352173c-.89148 32.471557-27.726685 58.755859-60.401123 58.755859h-24.748535c-32.674805 0-59.509522-26.284302-60.405762-58.755859z" fill="#fff"/><path d="m1562.046997 547.017822 47.560059-63.094726c23.642456-31.364991 30.746826-72.191895 19.095947-109.701905-11.650757-37.512939-40.637573-67.125488-77.89148-79.579101l-21.509155-30.112061c-35.386597-49.54834-93.920654-77.221435-154.676391-73.132568-60.749146-4.088867-119.280762 23.584228-154.671998 73.132568l-21.509155 30.112061c-37.253906 12.453613-66.240722 42.066162-77.891479 79.579101-11.650757 37.51001-4.54419 78.336914 19.098266 109.701905l47.55774 63.094726 14.103881-154.868164c35.199463 40.964844 86.519898 64.530274 140.526123 64.530274h32.786622 32.791015c54.006226 0 105.328613-23.56543 140.528565-64.530274z" fill="#333"/><path d="m1462.851807 609.839355c23.796386 0 43.200561-23.75415 43.200561-52.876709 0-29.125-19.404175-52.876708-43.200561-52.876708-23.791993 0-43.195801 23.751708-43.195801 52.876708 0 29.122559 19.403808 52.876709 43.195801 52.876709z" fill="#333"/><path d="m1460.522705 620.824951c23.791504 0 43.199951-22.08081 43.199951-49.15625 0-27.075683-19.408447-49.158935-43.199951-49.158935-23.791992 0-43.195679 22.083252-43.195679 49.158935 0 27.07544 19.403687 49.15625 43.195679 49.15625z" fill="#fff"/><path d="m1456.764771 661.976318c28.431884 0 51.621093-13.849609 51.621093-30.828369 0-16.981445-23.189209-30.83081-51.621093-30.83081-28.431397 0-51.621094 13.849365-51.621094 30.83081 0 16.97876 23.189697 30.828369 51.621094 30.828369z" fill="#f66"/><path d="m1457.656738 593.623291c11.552368 0 20.971924-10.467285 20.971924-23.301514 0-12.836181-9.419556-23.306396-20.971924-23.306396-11.552978 0-20.972534 10.470215-20.972534 23.306396 0 12.834229 9.419556 23.301514 20.972534 23.301514z" fill="#333"/><path d="m1468.845337 568.900635c5.778686 0 10.488281-5.363281 10.488281-11.937989 0-6.576904-4.709595-11.940429-10.488281-11.940429-5.774048 0-10.484131 5.363525-10.484131 11.940429 0 6.574708 4.710083 11.937989 10.484131 11.937989z" fill="#fff"/><path d="m1429.155151 471.023926 11.113892-3.272217c28.114014-8.273438 58.450073 1.038574 77.074585 23.658691l-8.243652 11.832764c-12.374024-13.445557-57.002686-19.23584-79.585572-11.114014z" fill="#333"/><path d="m1286.404419 609.839355c23.791992 0 43.195679-23.75415 43.195679-52.876709 0-29.125-19.403687-52.876708-43.195679-52.876708-23.791504 0-43.19812 23.751708-43.19812 52.876708 0 29.122559 19.406616 52.876709 43.19812 52.876709z" fill="#333"/><path d="m1288.735962 620.824951c23.792114 0 43.19812-22.08081 43.19812-49.15625 0-27.075683-19.406006-49.158935-43.19812-49.158935-23.791382 0-43.19812 22.083252-43.19812 49.158935 0 27.07544 19.406738 49.15625 43.19812 49.15625z" fill="#fff"/><path d="m1292.494019 661.976318c28.433593 0 51.622924-13.849609 51.622924-30.828369 0-16.981445-23.189331-30.83081-51.622924-30.83081-28.431763 0-51.621705 13.849365-51.621705 30.83081 0 16.97876 23.189942 30.828369 51.621705 30.828369z" fill="#f66"/><path d="m1291.601929 593.623291c11.550537 0 20.972412-10.467285 20.972412-23.301514 0-12.836181-9.421875-23.306396-20.972412-23.306396-11.550415 0-20.970093 10.470215-20.970093 23.306396 0 12.834229 9.419678 23.301514 20.970093 23.301514z" fill="#333"/><path d="m1301.852661 568.900635c5.77417 0 10.486206-5.363281 10.486206-11.937989 0-6.576904-4.712036-11.940429-10.486206-11.940429-5.773804 0-10.486206 5.363525-10.486206 11.940429 0 6.574708 4.712402 11.937989 10.486206 11.937989z" fill="#fff"/><path d="m1320.101196 471.023926-11.111694-3.272217c-28.11145-8.273438-58.44751 1.038574-77.076904 23.658691l8.245727 11.832764c12.372071-13.445557 57.000733-19.23584 79.583374-11.114014z" fill="#333"/><path d="m1374.625977 671.869385c17.849243 0 32.319824-6.247559 32.319824 3.286377 0 9.531738-14.470581 31.236938-32.319824 31.236938-17.845093 0-32.310669-21.7052-32.310669-31.236938 0-9.533936 14.465576-3.286377 32.310669-3.286377z" fill="#f25050"/><path d="m930.933655 753.747314h887.388977c30.037231 0 54.613159 24.575928 54.613159 54.61316v1661.941284c0 30.032471-24.575928 54.613037-54.613159 54.613037h-887.388977c-30.037293 0-54.615601-24.580566-54.615601-54.613037v-1661.941284c0-30.037232 24.578308-54.61316 54.615601-54.61316z" fill="#fff"/><path d="m943.153748 848.480469h862.948791c14.255249 0 25.915283 11.664551 25.915283 25.919922v1529.861328c0 14.255371-11.660034 25.915771-25.915283 25.915771h-862.948791c-14.25531 0-25.917603-11.6604-25.917603-25.915771v-1529.861328c0-14.255371 11.662293-25.919922 25.917603-25.919922z" fill="#07a1d9"/><path d="m1832.017822 2327.028564v89.45337c0 7.533935-6.161133 13.695556-13.69519 13.695556h-887.388977c-7.531555 0-13.69751-6.161621-13.69751-13.695556v-89.45337z" fill="#007dab"/><path d="m1022.401245 1984.422241h134.903565c19.173339 0 34.861694 15.692993 34.861694 34.868408v134.898804c0 19.175537-15.688355 34.859375-34.861694 34.859375h-134.903565c-19.175232 0-34.863525-15.683838-34.863525-34.859375v-134.898804c0-19.175415 15.688293-34.868408 34.863525-34.868408zm569.54773-978.677246h134.908447c19.170532 0 34.858765 15.688355 34.858765 34.861572v134.903687c0 19.175171-15.688233 34.863525-34.858765 34.863525h-134.908447c-19.170777 0-34.859253-15.688354-34.859253-34.863525v-134.903687c0-19.173217 15.688476-34.861572 34.859253-34.861572zm-569.54773 326.227417h134.903565c19.173339 0 34.861694 15.685791 34.861694 34.861084v134.904175c0 19.172851-15.688355 34.865845-34.861694 34.865845-44.969361 0-89.936524 0-134.903565 0-19.175232 0-34.863525-15.692994-34.863525-34.865845 0-44.965332 0-89.93457 0-134.904175 0-19.175293 15.688293-34.861084 34.863525-34.861084zm284.77478 326.227295h134.904175c19.175293 0 34.863526 15.683594 34.863526 34.858765v134.908447c0 19.175537-15.688233 34.859131-34.863526 34.859131-44.969604 0-89.934692 0-134.904175 0-19.175048 0-34.863403-15.683594-34.863403-34.859131 0-44.969482 0-89.939087 0-134.908447 0-19.175171 15.688355-34.858765 34.863403-34.858765z" fill="#4acfff"/><path d="m930.933655 848.480469h887.388977c7.534057 0 13.69519 6.165893 13.69519 13.699707v46.93457h-914.781677v-46.93457c0-7.533814 6.165955-13.699707 13.69751-13.699707z" fill="#007dab"/><g fill="#fff"><path d="m1736.897949 888.459717h62.146729v-19.324829h-62.146729z"/><path d="m1665.275269 888.459717h24.253662v-19.324829h-24.253662z"/><path d="m1631.928467 888.459717h24.253662v-19.324829h-24.253662z"/><path d="m972.189697 888.459717h24.251831v-19.324829h-24.251831z"/><path d="m938.843323 888.459717h24.251343v-19.324829h-24.251343z"/></g><path d="m1374.625977 2348.285889c16.743164 0 30.317016 13.57373 30.317016 30.321777 0 16.73877-13.573852 30.3125-30.317016 30.3125-16.738892 0-30.312623-13.57373-30.312623-30.3125 0-16.748047 13.573731-30.321777 30.312623-30.321777zm-314.52063 0c16.743286 0 30.315063 13.57373 30.315063 30.321777 0 16.73877-13.571777 30.3125-30.315063 30.3125-16.740723 0-30.314942-13.57373-30.314942-30.3125 0-16.748047 13.574219-30.321777 30.314942-30.321777zm629.045532 0c16.743164 0 30.312622 13.57373 30.312622 30.321777 0 16.73877-13.569458 30.3125-30.312622 30.3125s-30.317505-13.57373-30.317505-30.3125c0-16.748047 13.574341-30.321777 30.317505-30.321777z" fill="#4acfff"/><path d="m1591.948975 1658.199707h134.908447c19.170532 0 34.858765 15.683594 34.858765 34.858765v134.908447c0 19.175537-15.688233 34.859131-34.858765 34.859131-44.969483 0-89.939087 0-134.908447 0-19.170777 0-34.859253-15.683594-34.859253-34.859131 0-44.969482 0-89.939087 0-134.908447 0-19.175171 15.688476-34.858765 34.859253-34.858765zm-569.54773-652.454712h134.903565c19.173339 0 34.861694 15.688355 34.861694 34.861572v134.903687c0 19.175171-15.688355 34.863525-34.861694 34.863525h-134.903565c-19.175232 0-34.863525-15.688354-34.863525-34.863525v-134.903687c0-19.173217 15.688293-34.861572 34.863525-34.861572z" fill="#0090c4"/><path d="m1591.948975 1984.422241h134.908447c19.170532 0 34.858765 15.692993 34.858765 34.868408v134.898804c0 19.175537-15.688233 34.859375-34.858765 34.859375h-134.908447c-19.170777 0-34.859253-15.683838-34.859253-34.859375v-134.898804c0-19.175415 15.688476-34.868408 34.859253-34.868408zm-284.77295-652.449829h134.904175c19.175293 0 34.863526 15.685791 34.863526 34.861084v134.904175c0 19.172851-15.688233 34.865845-34.863526 34.865845-44.969604 0-89.934692 0-134.904175 0-19.175048 0-34.863403-15.692994-34.863403-34.865845 0-44.965332 0-89.93457 0-134.904175 0-19.175293 15.688355-34.861084 34.863403-34.861084zm-284.77478 326.227295h134.903565c19.173339 0 34.861694 15.683594 34.861694 34.858765v134.908447c0 19.175537-15.688355 34.859131-34.861694 34.859131-44.969361 0-89.936524 0-134.903565 0-19.175232 0-34.863525-15.683594-34.863525-34.859131 0-44.969482 0-89.939087 0-134.908447 0-19.175171 15.688293-34.858765 34.863525-34.858765z" fill="#007dab"/><path d="m1307.176025 1984.422241h134.904175c19.175293 0 34.863526 15.692993 34.863526 34.868408v134.898804c0 19.175537-15.688233 34.859375-34.863526 34.859375-44.969604 0-89.934692 0-134.904175 0-19.175048 0-34.863403-15.683838-34.863403-34.859375 0-44.969482 0-89.938965 0-134.898804 0-19.175415 15.688355-34.868408 34.863403-34.868408zm0-978.677246h134.904175c19.175293 0 34.863526 15.688355 34.863526 34.861572v134.903687c0 19.175171-15.688233 34.863525-34.863526 34.863525-44.969604 0-89.934692 0-134.904175 0-19.175048 0-34.863403-15.688354-34.863403-34.863525 0-44.967041 0-89.934204 0-134.903687 0-19.173217 15.688355-34.861572 34.863403-34.861572zm284.77295 326.227417h134.908447c19.170532 0 34.858765 15.685791 34.858765 34.861084v134.904175c0 19.172851-15.688233 34.865845-34.858765 34.865845-44.969483 0-89.939087 0-134.908447 0-19.170777 0-34.859253-15.692994-34.859253-34.865845 0-44.965332 0-89.93457 0-134.904175 0-19.175293 15.688476-34.861084 34.859253-34.861084z" fill="#16b7f2"/><path d="m1872.935791 1560.988281v-152.207641l-142.036011 108.526245 4.873047 97.192871 11.986817-19.698242c17.37854-28.538697 48.58728-45.725464 81.999145-45.146729 15.357056.261475 30.116699 4.266602 43.177002 11.333496z" fill="#d8f8fc"/><path d="m1832.022461 1549.719727v-109.676758l-101.122681 77.263916 4.873047 97.192871 11.986817-19.698242c17.37854-28.538697 48.58728-45.725464 81.999145-45.146729.756104.009155 1.50769.037232 2.263672.064942z" fill="#007dab"/><path d="m876.318054 1560.988281v-152.207641l142.038452 108.526245-4.870605 97.192871-11.991638-19.698242c-17.373658-28.538697-48.5849-45.725464-81.994385-45.146729-15.357056.261475-30.11908 4.266602-43.181824 11.333496z" fill="#d8f8fc"/><path d="m917.236145 1549.719727v-109.676758l101.120361 77.263916-4.870605 97.192871-11.991638-19.698242c-17.373658-28.538697-48.5849-45.725464-81.994385-45.146729-.756226.009155-1.51001.037232-2.263733.064942z" fill="#007dab"/><path d="m876.318054 952.422363-83.812683 96.077271c-48.771301 55.906006-85.394775 121.339477-107.545898 192.147217 57.600647 185.150512 140.974548 268.521972 347.015258 312.601928l30.114258-28.678955-185.770935-345.582153z" fill="#f66"/><path d="m990.464417 1454.648804 16.936767-11.627442c26.58783-19.128784 60.030212-26.127807 92.058289-19.250366 37.447509 8.03833 54.230346 8.995239 85.65625-12.901489 15.294067-10.658569 20.519775 16.169189 3.108886 42.86438-9.354126 14.344238-41.89563 6.343872-66.894043 27.899292 39.750855 51.731079 107.830811 102.441528 134.490723 141.445923 8.822022 12.901611 2.494873 33.729248-21.145019 18.829956-24.417237-15.394287-46.657227-43.625367-76.969849-58.384888l-2.511353 2.772705c14.633789 24.300537 37.97522 45.54834 59.799317 77.177368 16.335083 23.674927-1.921021 47.219361-33.918579 23.03064-1.705811 11.109619-13.912598 19.156494-24.771729 15.739868-21.971435-6.92688-68.131103-58.786011-85.308838-86.466064l-10.395141 4.695922c4.364502 17.410767 19.875488 34.54126 25.91809 56.414551 10.511719 38.052368-12.213378 45.259155-31.638671 15.002442-10.651734-16.589234-23.392334-44.754761-31.635621-64.116944-20.186157-25.355469-23.44165-40.47876-43.090942-66.226196-25.332092-33.178711-20.500671-79.051514 10.311463-106.899658z" fill="#f66"/><path d="m1872.935791 952.422363 83.814697 96.077271c48.773804 55.906006 85.397461 121.339477 107.545899 192.147217-57.60022 185.150512-140.97168 268.521972-347.01294 312.601928l-30.116089-28.678955 185.768433-345.582153z" fill="#f66"/><path d="m1758.789429 1454.648804-16.934449-11.627442c-26.587768-19.128784-60.027832-26.127807-92.058227-19.250366-37.445068 8.03833-54.230469 8.995239-85.653931-12.901489-15.296264-10.658569-20.519653 16.169189-3.108764 42.86438 9.354126 14.344238 41.893188 6.343872 66.894043 27.899292-39.750855 51.731079-107.834961 102.441528-134.493042 141.445923-8.822144 12.901611-2.492676 33.729248 21.145019 18.829956 24.417236-15.394287 46.654785-43.625367 76.97168-58.384888l2.511352 2.772705c-14.638061 24.300537-37.97705 45.54834-59.803711 77.177368-16.332519 23.674927 1.923462 47.219361 33.921021 23.03064 1.708252 11.109619 13.914429 19.156494 24.771851 15.739868 21.971435-6.92688 68.130981-58.786011 85.308837-86.466064l10.395142 4.695922c-4.364624 17.410767-19.875488 34.54126-25.915771 56.414551-10.511597 38.052368 12.210937 45.259155 31.638183 15.002442 10.6521-16.589234 23.390381-44.754761 31.633789-64.116944 20.183594-25.355469 23.441651-40.47876 43.088501-66.226196 25.336426-33.178711 20.500733-79.051514-10.311523-106.899658z" fill="#f66"/><path d="m876.318054 1146.62146-13.552734-17.924316c-34.728699-45.928833-82.428467-80.393555-136.943665-98.941163l150.496399-146.981323z" fill="#ffb700"/><path d="m1872.935791 1146.62146 13.555176-17.924316c34.72876-45.928833 82.428467-80.393555 136.943603-98.941163l-150.498779-146.981323z" fill="#ffb700"/></g></svg>