<svg height="2083" viewBox="0 0 8083 2083" width="8083" xmlns="http://www.w3.org/2000/svg"><path d="m7165.618652 2126.54248c0-13.1875 4.461914-24.438232 13.391602-33.789306 8.941406-9.329834 19.732422-14.000977 32.366699-14.000977 12.607422 0 23.380371 4.671143 32.334473 14.000977 8.935547 9.351074 13.405273 20.601806 13.405273 33.789306 0 13.191651-4.469726 24.462891-13.405273 33.789063-8.954102 9.346191-19.727051 14.017822-32.334473 14.017822-12.634277 0-23.425293-4.671631-32.366699-14.017822-8.929688-9.326172-13.391602-20.597412-13.391602-33.789063zm11.761719 0c0 10.35962 3.286133 19.128418 9.847168 26.273926 6.571289 7.148926 14.609375 10.721436 24.149414 10.721436 9.500977 0 17.54541-3.57251 24.104981-10.721436 6.579589-7.145508 9.84082-15.914306 9.84082-26.273926 0-10.355712-3.261231-19.120361-9.84082-26.269531-6.559571-7.15747-14.604004-10.72998-24.104981-10.72998-9.540039 0-17.578125 3.57251-24.149414 10.72998-6.561035 7.14917-9.847168 15.913819-9.847168 26.269531zm45.575195 7.303956h11.578125c-.817871 6.237793-3.375488 11.112304-7.629394 14.619873-3.938965 3.434082-8.705567 5.126953-14.271973 5.126953-7.560058 0-13.596679-2.656983-18.103027-7.954834-4.270508-5.04541-6.400391-11.555908-6.400391-19.506836 0-8.150391 2.117676-14.665039 6.337403-19.600342 4.221679-4.911133 10.190918-7.381104 17.907714-7.381104 5.735352 0 10.591309 1.553956 14.530274 4.634522 4.168457 3.332275 6.728516 8.007812 7.629394 13.997314h-11.578125c-1.001464-5.228515-4.189453-7.824951-9.621582-7.824951-8.947754 0-13.427734 5.302002-13.427734 15.906006 0 4.972412 1.153809 9.029053 3.453125 12.186524 2.300781 3.173584 5.545898 4.760742 9.730469 4.760742 6.240234 0 9.529785-2.994873 9.865722-8.963867z" fill="#9c8a83"/><g fill-rule="evenodd"><path d="m6997.331055 1435.852539h458.10498v594.169067c-152.709961 0-305.407715 0-458.10498 0 0-198.051147 0-396.114135 0-594.169067zm541.560547-383.27832h458.109375v977.447387h-458.109375zm-1083.12793 766.558716h458.109863v210.888671h-458.109863z" fill="#a7bf1c"/><path d="m7538.623047 1262.109619c33.044433 27.461548 25.439453 91.101074-16.992188 142.15918-42.419433 51.041504-103.592773 70.161987-136.637695 42.699951-33.04834-27.46167-25.45166-91.112793 16.979981-142.154541 42.428222-51.041626 103.601562-70.162109 136.649902-42.70459z" fill="#bd591e"/><path d="m7463.089844 723.2771c14.82373 31.26831 52.522949 44.728759 83.801269 29.91333l179.63086-85.119507c31.274414-14.819214 44.734863-52.527222 29.915039-83.797241-14.818848-31.268311-52.518555-44.730835-83.796875-29.909546l-179.630371 85.119995c-31.274903 14.815063-44.730957 52.522583-29.919922 83.792969z" fill="#332d2a"/><path d="m7332.568359 451.107056c-30.123046 17.032959-40.832519 55.60498-23.79541 85.727905l97.822754 173.045044c17.03711 30.120849 55.611328 40.834595 85.734375 23.803711 30.123047-17.032837 40.836426-55.605347 23.807617-85.727905l-97.834961-173.04712c-17.024902-30.122924-55.603027-40.834594-85.734375-23.801635z" fill="#332d2a"/><path d="m7484.793945 328.829224h161.666016l-13.948731 128.302002c-4.833496 44.458007-45.169921 80.833007-89.623535 80.833007-44.462402 0-76.884277-36.375-72.041992-80.833007z" fill="#f5793b"/><path d="m7623.091797 379.65918-99.662598 26.20459 81.368164 147.690795c14.099121 25.594239 48.050782 40.639161 75.463867 33.435059 27.404786-7.208374 38.289063-34.04541 24.194336-59.637573z" fill="#f5793b"/><path d="m7650.614258 493.766724c53.121094-20.625855 113.456543 5.959106 134.082031 59.084106l37.776856 97.281616c20.629882 53.125-5.957032 113.462525-59.082032 134.088379-53.125 20.631714-113.464355-5.957031-134.090332-59.079956l-37.780761-97.280029c-20.625977-53.122925 5.965332-113.462525 59.094238-134.094116z" fill="#f7eae4"/><path d="m7507.295898 638.997925c35.428711 0 64.314454-28.890015 64.314454-64.312988 0-35.418702-28.885743-64.308716-64.314454-64.308716-35.424804 0-64.302734 28.890014-64.302734 64.308716 0 35.422973 28.87793 64.312988 64.302734 64.312988z" fill="#f5793b"/><path d="m7474.617676 668.231689c26.887695 0 48.811523-21.924194 48.811523-48.814209 0-26.883667-21.923828-48.80957-48.811523-48.80957-26.879883 0-48.815918 21.925903-48.815918 48.80957 0 26.890015 21.936035 48.814209 48.815918 48.814209z" fill="#fff"/><path d="m7767.944336 622.331299c67.358398 0 122.469238 55.108276 122.469238 122.464966v120.983764c0 67.360474-55.11084 122.464966-122.469238 122.464966-67.362793 0-122.460938-55.104492-122.460938-122.464966v-120.983764c0-67.35669 55.098145-122.464966 122.460938-122.464966z" fill="#4d4441"/><path d="m7615.226074 558.685791 116.418457 47.747559-99.304199 242.122436c-13.130371 32.01709-50.060547 47.465088-82.083984 34.336304-32.010743-13.132569-47.460938-50.065064-34.330078-82.084229z" fill="#4d4441"/><path d="m7445.523926 596.891724c-30.13086 17.032837-40.836426 55.60913-23.803711 85.732055l97.831543 173.042481c17.020508 30.127075 55.603027 40.83667 85.72168 23.803711 30.130859-17.026612 40.836425-55.602906 23.799316-85.729981l-97.822754-173.04248c-17.037109-30.122925-55.603027-40.83252-85.726074-23.805786z" fill="#4d4441"/><path d="m7678.727051 497.811279c62.789062-24.379638 134.102539 7.043335 158.488281 69.83252l44.649414 114.983642c24.385254 62.79126-7.039551 134.113038-69.832519 158.492188-62.792969 24.379517-134.110352-7.043335-158.483887-69.832153l-44.649414-114.984131c-24.385742-62.79126 7.03125-134.112549 69.828125-158.492066z" fill="#4d4441"/><path d="m7067.419434 456.877075h205.517578v-66.687012h-205.517578z" fill="#8c3604"/><path d="m7272.937012 448.867065h170.291992v-50.66748h-170.291992z" fill="#8c3604"/><path d="m7252.677734 467.413696h27.758301v-87.754516h-27.758301z" fill="#fc0"/><path d="m7053.550293 467.413696h27.744141v-87.754516h-27.744141z" fill="#fc0"/><path d="m7430.403809 456.877075h17.57373v-66.679199h-17.57373z" fill="#fc0"/><path d="m7349.304199 497.705444c35.420899 0 64.311035-28.887939 64.311035-64.308838 0-35.422485-28.890136-64.308715-64.311035-64.308715-35.416504 0-64.30664 28.88623-64.30664 64.308715 0 35.420899 28.890136 64.308838 64.30664 64.308838z" fill="#f5793b"/><path d="m7481.030273 363.494995-10.665039-57.275024c-3.320312-17.840821 5.351075-35.766602 21.39502-44.232422 16.056152-8.469605 35.754394-5.505493 48.600098 7.305786h60.266113c20.662598 0 39.0625 13.096191 45.833496 32.619629l7.132812 5.537842c10.514649 8.15625 15.897461 21.272583 14.160157 34.464233l-.959961 117.067505c-35.314942-11.338379-90.69043-15.16919-95.19043-56.760498l-24.776367.925415 7.071777-39.080322z" fill="#332d2a"/><path d="m7593.880371 376.896729c15.384766 0 25.675293 17.392822 22.989746 38.846557-2.685547 21.447998-17.33789 38.84082-32.727051 38.84082-15.384765 0-25.679199-17.392822-22.989746-38.84082 2.685547-21.453735 17.342285-38.846557 32.727051-38.846557z" fill="#f5793b"/><path d="m7478.234863 478.05835c8.479981 0 15.385254-6.911255 15.385254-15.38086 0-8.47583-6.905273-15.38916-15.385254-15.38916-8.47998 0-15.38916 6.91333-15.38916 15.38916 0 8.469605 6.90918 15.38086 15.38916 15.38086z" fill="#f5793b"/><path d="m7490.315918 390.91626 33.113281 3.692505c4.23584.472046 7.641602 3.704956 8.350098 7.914184.6875 4.205445-1.501953 8.359986-5.363281 10.170777-3.861328 1.8125-8.451172.835815-11.242676-2.39087l-25.622559-1.155395c-5.01709-.22583-8.915039-4.473755-8.703613-9.503296.20752-5.022949 4.483887-9.2854 9.46875-8.727905z" fill="#332d2a"/><path d="m7495.060547 441.91333c4.215332 0 7.661621-6.5979 7.661621-14.691284 0-8.093262-3.446289-14.695313-7.661621-14.695313-4.211914 0-7.649902 6.602051-7.649902 14.695313 0 8.093384 3.437988 14.691284 7.649902 14.691284z" fill="#332d2a"/><path d="m7439.693359 875.244629h350.736329c48.758789 0 88.655761 39.892456 88.655761 88.659546 0 48.765014-39.896972 88.670044-88.655761 88.670044h-350.736329c-48.771484 0-88.667968-39.90503-88.667968-88.670044 0-48.76709 39.896484-88.659546 88.667968-88.659546z" fill="#4d4441"/><path d="m7405.477051 1286.271606-60.351563-299.548217c-9.680175-48.038819 21.333496-97.117554 68.904297-109.067993 47.587403-11.950806 94.429688 17.570068 104.102051 65.604614l60.347168 299.55249c9.680176 48.044678-21.333984 97.116943-68.896484 109.067993h-.007813c-47.579102 11.962525-94.41748-17.566284-104.097656-65.608887z" fill="#4d4441"/><path d="m1045.019897 1992.727539c469.187256 0 850.102784 16.212158 850.102784 36.183716 0 19.962524-380.915528 36.183227-850.102784 36.183227-469.191955 0-850.111572-16.220703-850.111572-36.183227 0-19.971558 380.919617-36.183716 850.111572-36.183716z" fill="#4c4441"/><path d="m1149.936279 1533.992676c-1.943481-6.881836-.546264-14.29126 3.777954-19.989868 4.314698-5.707276 11.064209-9.057495 18.219117-9.057495h381.802856c7.154663 0 13.904541 3.350219 18.218994 9.057495 4.319336 5.698608 5.721436 13.108032 3.777832 19.989868-20.199096 71.657226-72.294189 256.416137-93.335571 331.059326-5.333984 18.915771-22.592896 31.986938-42.255127 31.986938-41.727051 0-112.892456 0-154.620117 0-19.657227 0-36.92041-13.071167-42.255127-31.986938-21.036011-74.643189-73.131836-259.4021-93.330811-331.059326z" fill="#4c4441"/><path d="m1338.628174 1289.64624c118.818603 0 215.289917 96.471436 215.289917 215.299073 0 118.819091-96.471314 215.281005-215.289917 215.281005-118.81897 0-215.290161-96.461914-215.290161-215.281005 0-118.827637 96.471191-215.299073 215.290161-215.299073zm0 24.11377c-105.515015 0-191.177002 85.666015-191.177002 191.185303 0 105.51062 85.661987 191.177124 191.177002 191.177124 105.519531 0 191.176758-85.666504 191.176758-191.177124 0-105.519288-85.657227-191.185303-191.176758-191.185303z" fill="#4c4441"/><path d="m1212.03125 396.455566h-168.362915l-56.084595 336.88086h168.351197z" fill="#e76624"/><path d="m1000.789551 383.927856h250.610962s6.950317 68.694336 13.904419 137.413453c3.559326 35.182617-7.932984 70.218872-31.640992 96.448974-23.708129 26.229492-57.420288 41.194214-92.766479 41.194214 0 0 0 0-.009399 0-63.746705 0-117.148011-48.267212-123.570008-111.700195-7.712402-76.190064-16.528503-163.356446-16.528503-163.356446z" fill="#f5793b"/><path d="m1268.959717 702.623413c71.347778 0 129.268677 57.925537 129.268677 129.270874 0 71.345459-57.920899 129.266724-129.268677 129.266724-71.342896 0-129.273194-57.921265-129.273194-129.266724 0-71.345337 57.930298-129.270874 129.273194-129.270874z" fill="#823102"/><path d="m1383.195435 1060.071655c0-23.617187-9.385132-46.269287-26.088623-62.973022-16.699097-16.703736-39.355835-26.088867-62.973023-26.088867-23.626709 0-46.269287 9.385131-62.973022 26.088867-16.703736 16.703735-26.088746 39.355835-26.088746 62.973022v295.196656c0 23.621948 9.38501 46.269409 26.088746 62.973022 16.703735 16.703735 39.346313 26.088867 62.973022 26.088867 23.617188 0 46.273926-9.385132 62.973023-26.088867 16.703491-16.703613 26.088623-39.351074 26.088623-62.973022 0-84.473877 0-210.71814 0-295.196656z" fill="#e76624"/><path d="m1425.46875 1187.977539c0-61.268555-49.665039-110.938476-110.935791-110.938476-61.279907 0-110.940308 49.669921-110.940308 110.938476v89.079956c0 61.261597 49.660401 110.935547 110.940308 110.935547 61.270752 0 110.935791-49.67395 110.935791-110.935547 0-28.947143 0-60.133301 0-89.079956z" fill="#e76624"/><path d="m1386.836426 880.093628c.368652-23.639649-8.6521-46.458008-25.109986-63.439453-16.448974-16.981079-38.969116-26.730103-62.613769-27.103394-23.630737-.378174-46.460327 8.649536-63.432495 25.103028-16.981446 16.448608-26.739624 38.973388-27.108277 62.608886-.805664 50.775269-1.811279 114.187744-2.626098 164.962891-.368653 23.640137 8.661255 46.460937 25.105469 63.441894 16.458007 16.986084 38.97351 26.735352 62.613525 27.108155 23.644409.377929 46.460449-8.656739 63.442017-25.105469 16.985595-16.448608 26.730346-38.96875 27.103393-62.609009.814575-50.775268 1.816284-114.191772 2.626221-164.967529z" fill="#823102"/><path d="m1454.256104 1327.486816c0-75.489624-61.197754-136.687744-136.687378-136.687744-75.484864 0-136.68274 61.19812-136.68274 136.687744v8.720459c0 75.480347 61.197876 136.678101 136.68274 136.678101 75.489624 0 136.687378-61.197754 136.687378-136.678101 0-2.90393 0-5.816894 0-8.720459z" fill="#e76624"/><path d="m1256.97583 1603.747437c0-64.147461-51.99939-116.133423-116.146973-116.133423-64.133544 0-116.126464 51.985962-116.126464 116.133423v290.178588c0 64.138184 51.99292 116.133057 116.126464 116.133057 64.147583 0 116.146973-51.994873 116.146973-116.133057 0-86.385742 0-203.784057 0-290.178588z" fill="#f4a40d"/><path d="m1279.391724 1213.073608c0-64.135864-51.995484-116.135376-116.128907-116.135376-64.142822 0-116.135864 51.999512-116.135864 116.135376v360.416138c0 64.138184 51.993042 116.133057 116.135864 116.133057 64.133423 0 116.128907-51.994873 116.128907-116.133057 0-104.172607 0-256.234375 0-360.416138z" fill="#f4a40d"/><path d="m770.723328 1566.20752c16.601074-61.953858 80.282165-98.720093 142.237732-82.1167 61.953674 16.594727 98.717529 80.277588 82.123107 142.231324-22.363098 83.44519-52.748168 196.847656-75.111694 280.292846-16.598816 61.953736-80.277466 98.720093-142.233093 82.116577-61.956055-16.594604-98.722351-80.277465-82.118836-142.231201 22.358887-83.445312 52.743897-196.847656 75.102784-280.292846z" fill="#feba01"/><path d="m850.174866 1183.052612c16.603515-61.964966 80.286377-98.731323 142.233032-82.127807 61.962585 16.599365 98.724304 80.279907 82.123108 142.24292-26.959961 100.62207-66.31604 247.504394-93.278259 348.126953-16.599427 61.953247-80.286744 98.719482-142.24054 82.115967-61.949036-16.603394-98.714844-80.277344-82.118408-142.230957 26.962646-100.622071 66.320801-247.513917 93.281067-348.127076z" fill="#feba01"/><path d="m1281.244263 1175.752197c0-55.265259-21.956177-108.261718-61.038819-147.34436-39.078369-39.08313-92.074951-61.03418-147.347046-61.03418-4.756225 0-9.523681 0-14.282226 0-55.26062 0-108.268616 21.95105-147.344849 61.03418-39.07782 39.082642-61.035949 92.079101-61.035949 147.34436 0 55.272217 21.958129 108.268677 61.035949 147.347046 39.076233 39.08728 92.084229 61.043091 147.344849 61.043091h14.282226c55.272095 0 108.268677-21.955811 147.347046-61.043091 39.082642-39.078369 61.038819-92.074829 61.038819-147.347046z" fill="#feba01"/><path d="m1292.085449 963.814331c0-54.07727-21.496338-105.942627-59.732544-144.185791-38.236206-38.243286-90.10852-59.725952-144.183593-59.725952 0 0 0 0-.004639 0-54.077271 0-105.949463 21.482666-144.185669 59.725952-38.245239 38.243164-59.732544 90.108521-59.732544 144.185791v130.174561c0 54.084228 21.487305 105.940307 59.732544 144.190551 38.236206 38.240479 90.108398 59.723145 144.185669 59.723145h.004639c54.075073 0 105.947387-21.482666 144.183593-59.723145 38.236206-38.250244 59.732544-90.106323 59.732544-144.190551 0-42.619507 0-87.550782 0-130.174561z" fill="#a43901"/><path d="m1124.653198 1108.048096c121.358521 0 219.74585-98.387574 219.74585-219.748169 0 0 0 0 0-.002198 0-121.360961-98.387329-219.741577-219.74585-219.741577-30.380249 0-61.589111 0-91.965332 0-121.365051 0-219.745727 98.380616-219.745727 219.741577v.002198c0 121.360595 98.380676 219.748169 219.745727 219.748169z" fill="#a43901"/><path d="m938.676392 2020.64563h-333.903626c0-92.138306 74.806336-166.944946 166.949768-166.944946 92.143006 0 166.953858 74.80664 166.953858 166.944946z" fill="#c64a0a"/><path d="m1327.572754 2019.325806c0-90.681885-73.628052-164.305298-164.309937-164.305298-90.691162 0-164.310058 73.623413-164.310058 164.305298z" fill="#a53901"/><path d="m983.004578 738.722778c37.194091 66.851075 13.117431 151.322754-53.737854 188.514527-66.846497 37.196045-151.317994 13.114502-188.509888-53.733887-37.194153-66.851074-13.116821-151.325073 53.733826-188.514404 66.851196-37.189453 151.322631-13.114502 188.513916 53.733764z" fill="#c64a0a"/><path d="m909.882202 850.165894c13.808838-23.068726 17.891602-50.675049 11.346741-76.749756-6.54718-26.07312-23.180603-48.484131-46.251526-62.297364-23.066406-13.811157-50.670471-17.889282-76.745728-11.342163-26.074768 6.542725-48.483581 23.177857-62.29248 46.241822-39.888489 66.616699-94.657349 158.10205-134.543518 224.714111-13.811279 23.066406-17.889343 50.675049-11.346802 76.754517 6.547302 26.070556 23.177796 48.47705 46.246521 62.286132v.004517c23.066834 13.809082 50.673157 17.891235 76.750244 11.346313 26.077149-6.549194 48.481751-23.180175 62.292664-46.241943 39.883789-66.623535 94.655456-158.104248 134.543884-224.716186z" fill="#c64a0a"/><path d="m1059.968872 1007.971924c-11.221313-17.163208-34.237915-21.978638-51.401062-10.759522-25.50824 16.685547-57.452209 37.571656-57.452209 37.571656l40.644043 62.154174s31.946289-20.886718 57.459106-37.567627c17.163208-11.227783 21.969116-34.235473 10.750122-51.398681z" fill="#f5793b"/><path d="m1209.018066 831.195679c8.306031-14.393921 3.372437-32.795044-11.014526-41.108155-.008789 0-.008789 0-.008789 0-14.39148-8.310791-32.797607-3.376953-41.104004 11.014527-100.330688 173.78125-668.513397 1157.89978-668.513397 1157.89978l52.124908 30.084473s568.184632-984.109253 668.515808-1157.890625z" fill="#4c4441"/><path d="m728.172241 958.193115c-21.932922-12.659546-47.996521-16.091308-72.460205-9.536987-24.468323 6.55603-45.323181 22.563476-57.986999 44.491699v.004639c-12.664368 21.933472-16.096436 47.994751-9.542237 72.463013 6.558533 24.463623 22.561219 45.322753 44.494568 57.984741 80.263489 46.335571 201.387634 116.271972 281.649231 162.61438 21.937622 12.661987 48.005798 16.093628 72.464783 9.530517 24.468323-6.544922 45.320801-22.547607 57.989502-44.485229v-.009156c12.659546-21.928466 16.093872-47.989746 9.539795-72.458007-6.55188-24.465821-22.5542-45.316162-44.49231-57.987061-80.263794-46.337891-201.39685-116.270019-281.656128-162.612549z" fill="#f5793b"/><path d="m869.099426 994.750122c-55.333801-31.950928-126.091919-12.989624-158.040588 42.346069h-.00415c-31.948609 55.336182-12.985413 126.096558 42.352966 158.045166 10.436157 6.025635 21.054382 12.1521 31.497925 18.187012 55.333313 31.941773 126.09613 12.989746 158.042358-42.345703v-.009521c31.948608-55.333252 12.992004-126.089478-42.343628-158.035767-10.445434-6.025757-21.065979-12.161011-31.504883-18.187256z" fill="#f5793b"/><path d="m1027.683838 1041.71582c-33.662415-19.434448-73.671448-24.700439-111.215698-14.637207-37.542298 10.058594-69.552491 34.622437-88.989075 68.284668-19.434448 33.661988-24.702759 73.670899-14.644226 111.21106 10.063293 37.539917 34.627075 69.554321 68.28479 88.989136 2.699036 1.556152 5.400268 3.112793 8.099243 4.678711 33.659912 19.434448 73.66449 24.704711 111.208557 14.645996 37.544617-10.067383 69.559021-34.635865 88.993714-68.298096 19.439086-33.661865 24.695922-73.659424 14.637329-111.206421-10.058594-37.544556-34.615967-69.55896-68.284668-88.993286-2.68982-1.556641-5.390991-3.113281-8.089966-4.674561z" fill="#f5793b"/><path d="m1144.187866 369.746094c-13.53125-13.875244-21.878418-32.840698-21.878418-53.745484 0-42.500732 34.49939-77.00061 77.000611-77.00061 42.50061 0 77.000366 34.499878 77.000366 77.00061 0 8.320191-19.302368 122.163819-19.302368 122.163819l-3.695923-28.462036h-180.988404v67.670044h-43.859375l-10.222595 88.324462-57.932495-190.919311z" fill="#823102"/><path d="m1026.372681 428.745361c16.276001 2.112183 30.501465 24.525635 31.752929 50.022461 1.249512 25.497071-10.950683 44.480591-27.214965 42.373657-16.275757-2.112304-30.501343-24.525634-31.750428-50.024414-1.251831-25.496948 10.939026-44.478881 27.212464-42.371704z" fill="#f5793b"/><path d="m1196.806763 581.674561c10.454223 0 18.942627 8.486084 18.942627 18.943115 0 10.452392-8.488404 18.942627-18.942627 18.942627-10.454712 0-18.938477-8.490235-18.938477-18.942627 0-10.457031 8.483765-18.943115 18.938477-18.943115z" fill="#fff"/><path d="m1028.464355 287.469971c19.436768 0 35.216187 15.77771 35.216187 35.209717 0 19.434936-15.779419 35.214355-35.216187 35.214355-19.434814 0-35.207275-15.779419-35.207275-35.214355 0-19.432007 15.772461-35.209717 35.207275-35.209717z" fill="#823102"/><path d="m994.515442 331.548462c19.427429 0 35.209656 15.77478 35.209656 35.209595 0 19.434326-15.782227 35.209106-35.209656 35.209106-19.436707 0-35.218933-15.77478-35.218933-35.209106 0-19.434815 15.782226-35.209595 35.218933-35.209595z" fill="#823102"/><path d="m1210.861328 287.469971h-182.396973v94.805664h182.396973z" fill="#823102"/><path d="m783.480835 1995.522095c0-16.612793-6.599426-32.542359-18.351257-44.29419-11.744751-11.751587-27.681702-18.351196-44.296387-18.351196-102.056152 0-303.054596 0-405.113007 0-16.614685 0-32.546997 6.599609-44.296417 18.351196-11.747162 11.751831-18.348923 27.681397-18.348923 44.29419v36.101684h530.405991s0-16.548828 0-36.101684z" fill="#4c4441"/><path d="m811.888306 2013.79126c.156982-9.812378-3.622681-19.279541-10.504578-26.279297-6.881836-6.990967-16.284729-10.932984-26.095337-10.932984-107.540283 0-417.79779 0-523.786072 0-19.975906 0-36.260589 16.012085-36.59523 35.983887-.038696 2.248169-.072708 4.442017-.109527 6.553711-.081559 4.787964 1.766372 9.40332 5.118301 12.807373 3.356567 3.413941 7.942184 5.334595 12.727707 5.334595h561.294296c9.742127 0 17.686707-7.810303 17.843689-17.550049.036377-1.902466.070435-3.886963.106751-5.917236z" fill="#f4a40d"/><path d="m1149.071777 447.829712c8.793213-3.365967 18.678833.998779 22.101441 9.773804 3.44104 8.814087-.919434 18.763305-9.740113 22.201782-3.686523 1.438232-7.564209 1.513306-11.096069.466553l-37.758545-4.551026c-3.827759 1.121826-7.819214.550415-11.077759-1.336181-2.708374-1.556763-4.915649-4.007325-6.144653-7.138672-2.844849-7.302857.769043-15.552124 8.078613-18.401612 4.173706-1.631347 8.656739-1.146606 12.265992.931153l33.270752-1.902466z" fill="#823102"/><path d="m1139.054077 484.695679c9.02063 0 16.348633 9.876953 16.348633 22.037842 0 12.159057-7.328003 22.03601-16.348633 22.03601-9.025757 0-16.348511-9.876953-16.348511-22.03601 0-12.160889 7.322754-22.037842 16.348511-22.037842z" fill="#4c4441"/><path d="m1392.680298 1682.19519h-.240967s0-38.805297 0-66.013794c0-14.35498 11.765381-25.997314 26.27063-25.997314 14.505371 0 26.256958 11.642334 26.256958 25.997314v48.864014c2.075439 15.256104 15.287964 26.999024 31.2771 26.999024 17.449951 0 31.600463-14.000122 31.600463-31.277466 0-40.243164 0-109.406372 0-146.609497 0-6.74524-2.708374-13.217041-7.53247-17.987061-4.824707-4.779053-11.360352-7.455078-18.178345-7.455078-40.539551 0-118.873657 0-159.417236 0-6.817993 0-13.362915 2.676025-18.182984 7.455078-4.81958 4.77002-7.527832 11.241821-7.527832 17.987061v172.106323c0 12.56189 5.038574 24.604858 14.01355 33.480102 8.970825 8.884644 21.136841 13.872803 33.82605 13.872803 12.684692 0 24.859619-4.988159 33.830444-13.872803 8.966553-8.875244 14.004639-20.918212 14.004639-33.480102z" fill="#f4a40d"/><path d="m1216.195435 447.310547c-8.142212-3.693237-17.304444.261841-20.490357 8.864014-3.204224 8.636108.83313 18.699218 8.989258 22.468017 3.408813 1.577149 7.013428 1.802124 10.281372.898926l34.986572-3.056519c3.545533 1.270142 7.245728.851075 10.272339-.898925 2.512573-1.440186 4.560913-3.791016 5.698486-6.86084 2.649048-7.157349-.682739-15.50232-7.450317-18.62439-3.868896-1.781738-8.028809-1.47937-11.378662.450684l-30.817383-3.195313z" fill="#823102"/><path d="m1225.480347 484.695679c-8.31543 0-15.074219 9.876953-15.074219 22.037842 0 12.159057 6.758789 22.03601 15.074219 22.03601 8.32019 0 15.074341-9.876953 15.074341-22.03601 0-12.160889-6.754151-22.037842-15.074341-22.037842z" fill="#4c4441"/></g></svg>