<svg height="725" viewBox="0 0 872 725" width="872" xmlns="http://www.w3.org/2000/svg"><path d="m286.032959 580.443787c0-30.161683-24.394196-54.555237-54.555222-54.555237-30.161041 0-54.532363 24.394226-54.532363 54.555237 0 30.161743 24.371322 54.555236 54.532363 54.555236 30.161759 0 54.555222-24.394165 54.555222-54.555236zm342.247986 0c0-30.161683-24.371338-54.555237-54.532349-54.555237-30.161743 0-54.555237 24.394226-54.555237 54.555237 0 30.161743 24.394226 54.555236 54.555237 54.555236s54.532349-24.394165 54.532349-54.555236zm-457.065338-.000672c0-11.596496 3.2966-22.427917 8.988586-31.626343h-55.268936v31.626343zm342.270843 0c0-11.596496 3.29657-22.427917 8.988587-31.626343h-239.722321c5.6922 9.198426 8.988525 20.029847 8.988525 31.626343zm174.057373 0v-31.626343h-62.517456c5.6922 9.198426 8.988587 20.029847 8.988587 31.626343zm-20.941894-462.439453c-5.511353-.655212-10.905213-.999878-16.259217-1.003662l-.000244.016968c-16.065796-.012085-31.810486 3.077575-49.689087 10.270447-43.346985 17.462524-68.632629 52.251281-108.399597 67.357177-49.532043 18.815033-104.32492 18.598786-156.661163 26.875763-10.915619 1.726319-21.661377 1.444794-32.808899 4.750672-13.005432 3.715606-26.032959 7.636566-37.180481 11.352386-7.633209-2.685852-15.883789-3.702423-23.931702-3.702423-12.389435 0-24.371383 2.689789-35.306945 8.051453-8.875809 4.958221-16.505936 11.744262-22.281601 20.408081-10.945588 15.489135-17.759369 33.465545-19.203248 52.458313-3.513931 24.564758-5.583099 49.53421-6.824935 74.091095l49.135223.64682v-8.274842c0-26.212738 1.637085-52.417633 5.352875-79.044342 2.059799-13.419342 6.421692-26.653076 13.025375-38.830566 1.44397-2.483948 3.282868-4.744019 5.35286-6.601898 1.029922-.615998 1.880813-1.437226 2.698715-1.851227 6.815323-4.119721 14.44635-6.190674 22.504257-5.776672-11.147583 12.389404-19.207443 26.618835-24.15506 42.309936-.827957 2.473663-1.45961 4.741089-1.87352 7.426941-1.052093 6.915222-1.756439 13.956055-2.074264 21.098938 1.126144 7.378418 3.59433 15.30072 8.207794 23.865356 2.19989 10.492341 4.143997 19.231019 4.683762 21.255249.558883 2.094727 1.149627 3.456391 1.64656 4.601807 1.424652 3.283783 2.078324 4.790497-.999771 16.698395-2.513657 9.722259-16.93222 32.667297-24.579025 37.692871 0 0 .19368.039215.490722.156128-.048004.032623-.08673.078766-.133865.111511-.091965.063751-.178207.136444-.267639.200745-.002441.001404-.006302.000732-.010345.00003-.004212-.000732-.008637-.001495-.011918-.00003-.424636.306-.813903.619018-1.182037.936767-.00119.001343-.004837.000763-.009048.000092-.004609-.000733-.009858-.001587-.013215-.000092-.181869.157288-.34439.330902-.512985.490662-.001617.001495-.007553.000671-.012878-.000061-.004944-.000702-.009369-.001312-.009369.000061-.168289.159821-.312958.328613-.468384.490692-.162384.168915-.319473.31955-.468368.490662-.583283.670562-1.056626 1.357849-1.449768 2.051971-.786408 1.388153-1.23758 2.808319-1.427414 4.193085-.142319 1.038605-.152375 2.060791-.066864 3.033295.113998 1.296691.408248 2.503448.735961 3.568603.16388.532593.301148 1.078308.423768 1.605866.245376 1.055084.423156 2.113617.579895 3.323211.078399.604889.14772 1.253357.223037 1.94046.226029 2.061158.464844 4.547089.892166 7.873047.142548 1.108612.300492 2.305786.490677 3.61319.392762 2.696411.647019 6.453491.780671 10.928436.187133 6.265015.141876 13.931794-.066865 22.058167-.030929 1.204834-.073181 2.458343-.111526 3.680115-2.178848 6.020813-3.352478 7.21875-3.970047 12.601379-.095886.835571-.170288 1.739868-.223038 2.654205-2.296676 6.467377-3.51448 7.606171-4.148483 13.136688-.079498.69275-.151672 1.412659-.200729 2.163392 7.526886-3.384156 15.86737-5.263672 24.645385-5.263672 9.754395 0 18.964219 2.342041 27.121308 6.468139.241119-4.351074-.888001-10.467041-1.86081-15.736419-.273132-1.479584-.533966-2.892365-.748687-4.180634-.983231-5.899597-1.63591-17.041443-1.472031-31.938904.067093-6.047332 5.120987-16.064514 8.52034-22.147369 2.596008-4.647766 5.533691-17.398834 8.965759-21.300232 7.966523-9.055664 17.742951-26.54248 19.381745-29.819885 1.550201-3.099671 11.879272-20.535828 16.19284-27.678711 1.641297-1.451965 3.480164-3.158478 5.419831-5.062958 18.154846 3.338013 41.150878 7.988861 70.613891 14.898865.025757-.117371.063416-.216767.089203-.334534 5.988098 1.241913 12.166565 2.494049 18.35611 3.523956 18.993499 3.513947 38.191803 5.152192 57.588531 5.152192 16.519013 0 33.429138-1.325104 50.160858-3.724732.053223-.00766.020783.0719-.010376.148224-.014862.036346-.029388.07196-.03424.097107 9.05783-1.029633 20.874847-2.399536 33.544769-4.77301.227112 3.866913.731872 7.734955 1.245544 11.671722 1.170777 8.972199 2.388123 18.301331.471802 28.787567-.163452 5.420685-.371094 10.539032-.602234 15.099427-.192871-.006653-.236267.381835-.089172 1.472045-.131653 2.455323-.260193 4.696747-.401489 6.557282-.035096.242523-.070618.484405-.105896.72467-.264038 1.79834-.514466 3.503876-.473999 4.672821-1.310975 6.882416-1.295472 9.498688-.312256 14.742585.520263 2.775634 3.313781 20.345214 1.405151 36.7565-.898987 2.03183-1.466553 3.604462-1.628113 6.512665-.015075.283203-.015136.577575-.022278.869903-2.312927 6.225373-3.760437 7.245636-4.036926 12.222443-.114197 2.055847.062378 4.372803.258179 6.941833l.031799.417969c9.818604-6.940918 21.784119-11.040527 34.704529-11.040527 5.608398 0 11.039001.770447 16.192871 2.20813-4.594849-12.044007-9.894409-35.380585-8.051453-41.462738 2.185364-7.209992 2.643738-14.873139 1.962708-20.318848.491211-2.292725.225464-6.05249.07959-8.116791-.023377-.330902-.043701-.618225-.057312-.848968.37793-10.879914 1.462829-27.820313 1.561279-34.035797v-.022248c7.610352-22.852569 22.432373-55.837341 25.002258-61.513977 4.536377-3.999695 8.504029-8.506042 11.709229-13.604889 4.79657-7.630371 5.357056-17.289825 5.955139-26.407593.081787-.248931.129761-.526184.15863-.693145.025574-.14798.036194-.20932.042115-.087525v-.05014c-.000305-9.071045-.000611-17.941925.200744-26.825653l.401429-22.10315c.207031-18.578796 5.586303-36.946319 15.701843-52.83731 4.540649 2.476898 9.292053 4.761078 14.452759 6.824951 1.444885 7.020111 3.495239 14.038482 6.1781 20.854187 3.096863 6.805267 4.968506 14.013824 5.1745 21.233124.412964 3.301635.412964 6.623138 0 9.924926.20697 2.887848 1.643005 5.782471 4.326904 7.22641.412048.212036.635315.199494 1.048279.401459 2.889648.212128 5.574585 1.243866 8.051452 2.475769 3.508667 2.27182 7.625489 3.323212 11.754273 3.323212 8.670959 0 16.307617-4.957489 20.229614-12.60141.619446-1.645844 1.020264-3.305603 1.226746-4.951447 2.270752-17.13565 3.300964-34.468322 3.300964-51.811676v-2.69873c.207337-4.335114.223023-8.845856.223023-13.18161 0-8.050782-.211548-16.10437-.624512-24.155091.20697-9.496032 1.042236-19.216186 2.074219-28.504516 8.256286-7.018738 16.50476-13.83606 25.381225-20.854187-4.747619-.412842-9.476928-.624451-14.430664-.624451-11.972595 0-23.746826 1.448242-35.306946 3.925415-10.321045-3.096802-20.012634-10.953003-31.068847-12.267334z" fill-rule="evenodd"/><path d="m518.531006 507.235413c.104065-.347962.210998-.692261.314148-1.04065l-.412293 1.43335c.033326-.130127.065186-.262604.098145-.3927z"/><g fill="none" stroke="#fff" stroke-linecap="round" stroke-linejoin="round" stroke-width="9.232873"><path d="m434.380127 352.370453s5.0849-41.411926-38.778076-49.857514"/><path d="m425.147247 319.132111c-33.169586 24.489624-33.238342 24.005462-33.238342 24.005462z"/><path d="m418.255219 276.094574s30.59613 28.366852 63.122528-2.248871"/><path d="m450.607239 288.068665c-.434937-41.228302-.002197-41.000611-.002197-41.000611z"/><path d="m508.957306 304.647583s-41.709686 1.051483-43.622559 45.679138"/><path d="m477.43512 318.661346c29.095001 29.213746 28.62619 29.352875 28.62619 29.352875z"/></g></svg>