<svg height="300" viewBox="0 0 300 300" width="300" xmlns="http://www.w3.org/2000/svg"><path d="m37.643734 232.593903c-1.560917 3.005706-3.400204 5.823562-3.400204 9.119598l.015366 1.383301c0 7.12146 5.577637 11.425094 11.98867 11.425094h207.188774c6.421295 0 11.937439-5.328292 11.937439-12.449768l-.068298-1.3833c0-3.313111-1.622406-6.182206-3.398499-9.136673l-102.610717-184.065323c-4.534165-5.030808-11.884491-5.030808-16.418671.006836l-105.232155 185.107071z" fill="#b51700" stroke="#000" stroke-width="11.666579"/><g fill="none" stroke="#fff" stroke-linecap="round" stroke-linejoin="round" stroke-width="9.229055"><path d="m133.453659 225.387024s5.082794-41.394791-38.762039-49.836899"/><path d="m124.224594 192.16243c-33.155868 24.479492-33.224594 23.995529-33.224594 23.995529z"/><path d="m117.335419 149.14267s30.583481 28.355133 63.096435-2.24791"/><path d="m149.674072 161.111832c-.434768-41.211274-.002182-40.983673-.002182-40.983673z"/><path d="m208 177.683899s-41.692429 1.051025-43.604507 45.660248"/><path d="m176.49086 191.691849c29.082977 29.201675 28.614349 29.340729 28.614349 29.340729z"/></g></svg>