<svg height="90" viewBox="0 0 90.000001 90.000001" width="90" xmlns="http://www.w3.org/2000/svg"><path d="m288.57143 358.79078a45 45 0 0 0 -45 45 45 45 0 0 0 45 45 45 45 0 0 0 45-45 45 45 0 0 0 -45-45zm0 14c12.4264 0 22.5 10.0737 22.5 22.5-.01 4.0204-1.0944 7.9655-3.1446 11.4238-6.4496-1.7403-12.9997-1.4612-19.4023.8848-3.3373-1.2166-6.7112-1.9674-10.0996-2.0664-.3902-.014-.7818-.014-1.1719-.014-2.6963.026-5.3882.4204-8.0606 1.1582-2.0357-3.4502-3.111-7.3827-3.121-11.3887 0-12.4264 10.0736-22.5 22.5-22.5zm-8.1817 23.1817c-1.5062 0-2.7265 1.2223-2.7265 2.7285s1.2203 2.7265 2.7265 2.7265 2.7266-1.2203 2.7266-2.7265-1.2204-2.7285-2.7266-2.7285zm16.3633 0c-1.5062 0-2.7266 1.2223-2.7266 2.7285s1.2204 2.7265 2.7266 2.7265 2.7266-1.2203 2.7266-2.7265-1.2204-2.7285-2.7266-2.7285zm-18.9473 12.2754c.3548 0 .7075-.0003 1.0625.01 2.7874.082 5.5715.6214 8.3399 1.5508v20.9824h-17.0957c1.3463-1.4982 2.0857-3.4387 2.0957-5.4531 0-4.5184-3.663-8.2754-8.1817-8.2754-.9297 0-1.8531.1655-2.7285.4785v-3.4472c.0005-.4599.244-.886.6406-1.1192 5.2335-3.0796 10.5451-4.6765 15.8672-4.7265zm20.752.037c5.5761-.1068 11.1586 1.4602 16.6465 4.6894.3965.2332.6403.6593.6406 1.1192v3.4472c-.8753-.3132-1.7988-.4785-2.7285-.4785-4.5187 0-8.1817 3.7567-8.1817 8.2754 0 2.0142.7494 3.9551 2.0957 5.4531h-17.0957v-20.9922c2.8633-.9496 5.7431-1.4586 8.6231-1.5136zm-34.5313 11.5976c3.0125 0 5.4532 2.4426 5.4532 5.4551 0 3.0124-2.4407 5.4531-5.4532 5.4531s-5.455-2.4407-5.455-5.4531c0-3.0125 2.4425-5.4551 5.455-5.4551zm49.0899 0c3.0125 0 5.4551 2.4426 5.4551 5.4551 0 3.0124-2.4426 5.4531-5.4551 5.4531s-5.4531-2.4407-5.4531-5.4531c0-3.0125 2.4406-5.4551 5.4531-5.4551z" fill="#fff" transform="translate(-243.57143 -358.79078)"/></svg>