<svg height="2750" viewBox="0 0 2750 2750" width="2750" xmlns="http://www.w3.org/2000/svg"><g fill-rule="evenodd"><path d="m1375.087891 2383.338379c614.54248 0 1115.775634-138.317871 1115.775634-307.90625 0-169.580078-501.233154-307.905762-1115.775634-307.905762-614.550782 0-1115.771637 138.325684-1115.771637 307.905762 0 169.588379 501.220855 307.90625 1115.771637 307.90625z" fill="#2da3ca"/><path d="m2444.859131 2163.135742c-136.869141 127.315186-563.972901 220.202637-1069.77124 220.202637-196.732422 0-381.534974-14.06665-542.020813-38.73291-5.818726-17.260987-8.878296-34.924317-8.878296-52.88501 0-200.366211 374.926574-362.800781 837.426574-362.800781 357.975464 0 663.440064 97.318115 783.243775 234.216064z" fill="#1b8eb5"/><path d="m1913.507446 1857.56543c-1.643676 70.58081-20.76831 119.376709-72.509521 158.337158-245.37793 184.729004-582.035401 244.099853-872.217041 223.677734-96.199646-6.76709-162.504212-65.132812-231.490051-154.309082 388.887512-67.912109 787.329162-159.794189 1176.216613-227.70581z" fill="#d5edf5"/><path d="m756.525024 2070.12207c113.863282-89.680908 275.858643-151.200439 414.265747-189.932861 184.302125-51.554688 381.286744-78.369141 572.595459-79.647217 24.141358-.162353 50.610474 3.133545 74.33667 7.446289 24.934937 4.54126 91.914917 17.806397 95.784546 49.577149 1.135376 9.322021-3.25122 17.471924-9.562011 23.974609-68.123414 70.271729-187.581665 116.621582-279.573853 144.539063-131.742065 39.978027-273.620361 63.17163-410.677002 74.597168-147.522095 12.308837-305.887878 12.406738-452.242065-11.462159l-24.161682-3.942871z" fill="#fff"/><path d="m1896.209961 1874.044678c38.313843-39.51416-97.709107-63.106446-152.754517-62.73169-399.870117 2.66919-792.736694 119.579834-980.269592 267.27295 375.834168 61.295166 961.914124-28.015137 1133.024109-204.54126z" fill="#a66f39"/><path d="m802.582092 2084.347412c372.204529 48.775391 916.74823-37.988281 1088.228333-204.976074-12.349243-26.831299-109.456299-42.28125-153.401734-41.979981-376.749511 2.522461-747.086608 109.537354-934.826599 246.956055z" fill="#855628"/><path d="m1074.428711 1955.168701c4.858398-31.620361 18.11499-61.376953 37.097168-89.859863 153.67041-27.278809 307.332519-54.557617 460.998657-81.836426 56.982178 9.281738 113.952515 18.558838 170.930908 27.840576 21.639038 17.313721 35.909058 39.807129 39.363648 69.852295-196.032837 83.077149-394.909912 161.450684-651.151612 145.182617-17.9729-1.147461-33.007812-8.943603-44.291259-22.981689-11.29541-14.030029-15.689942-30.395752-12.94751-48.19751z" fill="#faede1"/><path d="m1111.525757 1865.308838c-10.420777 16.788574-11.214111 29.512451 7.629639 41.393555 123.58374 77.954345 484.366699-24.763672 624.300048-95.389405-56.978393-9.281738-113.94873-18.558838-170.930908-27.840576-153.666138 27.278809-307.328247 54.557617-460.998779 81.836426z" fill="#a66f39"/><path d="m1465.179932 1715.813232 450.085449-124.116943c5.2854-1.456787 6.693359-17.618896 1.367065-16.373779l-447.367431 105.024902z" fill="#c0c9cc"/><path d="m1757.387451 1877.275391c-28.14917 12.361572-56.917114 24.22705-86.523315 35.441406l-19.445801-47.668457c29.410767-11.072022 57.796265-22.758301 85.441162-34.883789zm-105.977051 42.675781c-20.784546 7.584717-41.992065 14.831787-63.684204 21.704346-15.921997 5.041503-32.15332 9.907714-48.722412 14.54248l-19.575928-47.98584c17.924317-4.972168 35.506348-10.209228 52.787232-15.68164 20.406128-6.46167 40.29541-13.244629 59.733276-20.28003zm-132.568359 41.752197c-39.648682 10.530762-81.242065 19.873291-125.21167 27.758789l-9.057495-50.545166c39.835449-7.15332 77.962158-15.645263 114.6604-25.268799z" fill="#404e5c"/><path d="m1478.63208 1844.715332 195.45874-1466.149902c.407105-3.062012-8.259887-6.01416-8.784912-2.97461l-251.04956 1466.504151c-3.682618 21.54541 61.490722 24.304199 64.375732 2.620361z" fill="#cfd4d6"/><path d="m1651.109253 458.580566-913.81842 1626.690674 116.687072-186.71875c87.682923 64.729492 510.51001 78.47876 543.843262-98.172851z" fill="#a3b5c7"/><path d="m1651.109253 458.580566-809.21637 1433.994385 12.085022 5.977539c31.050476 22.916748 104.130005 39.432617 187.064575 43.383789z" fill="#b6c6d4"/><path d="m1664.439209 380.738281-78.90625 16.862305 11.59668-29.325684-113.887574 50.803223 84.904175-15.34375-10.900879 39.554688 99.849243-19.667481 10.795289 1.438477 5.684326-42.590332z" fill="#900"/><path d="m1662.396606 466.339844c236.35254 323.82666 330.664185 690.594726 254.23584 1108.982666l4.093384-95.812989c-117.52124 80.741211-239.363281 113.854981-364.155884 114.575196l-55.01709 78.678222 51.607178-93.00122z" fill="#a3b5c7"/><path d="m1718.068726 1573.385498c-53.206299 13.904053-107.067872 20.385742-161.49878 20.699219l-55.01709 78.678222 51.607178-93.00122 109.236572-1113.421875c88.440064 312.441406 119.987183 670.949707 55.67212 1107.045654z" fill="#95a7ba"/></g></svg>